<?xml version="1.0"?>
<svg xmlns="http://www.w3.org/2000/svg" height="512px" viewBox="-24 -24 799.99998 799.99998" width="512px" className=""><g><path d="m710.832031 285.832031h-65.253906c-5.117187.050781-9.734375-3.097656-11.554687-7.882812-2.628907-7.277344-5.617188-14.550781-8.863282-21.613281-2.089844-4.675782-1.054687-10.160157 2.597656-13.753907l46.113282-46.085937c14.644531-14.640625 14.644531-38.378906 0-53.027344l-70.726563-70.664062c-14.839843-14.160157-38.183593-14.160157-53.023437 0l-46.097656 46.089843c-3.570313 3.648438-9.03125 4.691407-13.691407 2.628907-7-3.238282-14.273437-6.25-21.597656-8.878907-4.796875-1.816406-7.949219-6.429687-7.902344-11.558593v-65.253907c0-20.707031-16.789062-37.5-37.5-37.5h-100c-20.707031 0-37.5 16.792969-37.5 37.5v65.253907c.050781 5.117187-3.097656 9.738281-7.882812 11.558593-7.339844 2.652344-14.617188 5.640625-21.613281 8.878907-4.664063 2.0625-10.121094 1.019531-13.691407-2.628907l-46.089843-46.074219c-14.832032-14.175781-38.191407-14.175781-53.03125 0l-70.726563 70.71875c-14.644531 14.636719-14.644531 38.378907 0 53.015626l46.097656 46.074218c3.648438 3.601563 4.683594 9.078125 2.601563 13.757813-3.25 7.058593-6.25 14.335937-8.859375 21.59375-1.832031 4.777343-6.441407 7.90625-11.550781 7.851562h-65.253907c-20.707031 0-37.5 16.792969-37.5 37.5v100c0 20.710938 16.792969 37.5 37.5 37.5h65.253907c5.117187-.046875 9.738281 3.101563 11.558593 7.886719 2.628907 7.277344 5.617188 14.550781 8.863281 21.613281 2.078126 4.679688 1.042969 10.15625-2.597656 13.753907l-46.113281 46.035156c-14.644531 14.644531-14.644531 38.378906 0 53.023437l70.707031 70.714844c14.84375 14.160156 38.1875 14.160156 53.027344 0l46.097656-46.085937c3.574219-3.640626 9.023438-4.683594 13.691406-2.628907 6.925782 3.214844 14.199219 6.25 21.601563 8.878907 4.796875 1.808593 7.960937 6.429687 7.910156 11.554687v65.253906c0 20.710938 16.792969 37.5 37.5 37.5h100c20.710938 0 37.5-16.789062 37.5-37.5v-65.253906c-.046875-5.125 3.105469-9.738281 7.902344-11.554687 7.402344-2.675782 14.675781-5.664063 21.597656-8.878907 4.660157-2.058593 10.121094-1.019531 13.691407 2.628907l46.085937 46.074218c14.835937 14.171875 38.195313 14.171875 53.035156 0l70.726563-70.730468c14.644531-14.640626 14.644531-38.378907 0-53.019532l-46.097656-46.074218c-3.660157-3.589844-4.6875-9.078126-2.605469-13.75 3.253906-7.066407 6.25-14.34375 8.863281-21.601563 1.839844-4.765625 6.441406-7.890625 11.546875-7.839844h65.253906c20.710938 0 37.5-16.789062 37.5-37.5v-100c0-20.707031-16.789062-37.5-37.5-37.5zm12.5 137.5c0 6.90625-5.59375 12.5-12.5 12.5h-65.253906c-15.613281 0-29.589844 9.726563-34.992187 24.390625-2.398438 6.613282-5.117188 13.21875-8.078126 19.648438-6.414062 14.175781-3.367187 30.839844 7.636719 41.839844l46.089844 46.074218c2.347656 2.34375 3.667969 5.523438 3.667969 8.84375 0 3.316406-1.320313 6.496094-3.667969 8.84375l-70.714844 70.699219c-4.941406 4.734375-12.734375 4.734375-17.675781 0l-46.097656-46.074219c-10.984375-11.03125-27.664063-14.078125-41.839844-7.636718-6.25 2.910156-12.910156 5.617187-19.648438 8.058593-14.6875 5.402344-24.449218 19.410157-24.425781 35.058594v65.253906c0 6.90625-5.59375 12.5-12.5 12.5h-100c-6.902343 0-12.5-5.59375-12.5-12.5v-65.253906c.007813-15.613281-9.71875-29.578125-24.375-34.992187-6.730469-2.507813-13.347656-5.152344-19.648437-8.0625-4.804688-2.21875-10.03125-3.359376-15.324219-3.355469-9.941406.003906-19.484375 3.957031-26.515625 10.988281l-46.113281 46.085938c-4.9375 4.726562-12.71875 4.726562-17.660157 0l-70.699218-70.769532c-2.347656-2.347656-3.667969-5.527344-3.667969-8.84375 0-3.320312 1.320313-6.5 3.667969-8.84375l46.089844-46.074218c11.011718-11 14.046874-27.664063 7.636718-41.839844-2.964844-6.429688-5.679687-13.035156-8.078125-19.664063-5.417969-14.667969-19.421875-24.398437-35.058593-24.375h-65.253907c-6.902343 0-12.5-5.59375-12.5-12.5v-100c0-6.902343 5.597657-12.5 12.5-12.5h65.253907c15.644531.03125 29.644531-9.710937 35.058593-24.386719 2.398438-6.613281 5.113281-13.21875 8.078125-19.648437 6.410156-14.175781 3.375-30.839844-7.636718-41.84375l-46.089844-46.074219c-2.347656-2.34375-3.667969-5.519531-3.667969-8.839844 0-3.316406 1.320313-6.496093 3.667969-8.84375l70.707031-70.699218c4.953125-4.722656 12.734375-4.722656 17.675781 0l46.105469 46.074218c10.976563 11.035157 27.664063 14.085938 41.835937 7.636719 6.363282-2.925781 12.976563-5.648437 19.648438-8.0625 14.671875-5.429687 24.394531-19.421875 24.363281-35.058593v-65.253907c0-6.902343 5.597657-12.5 12.5-12.5h100c6.90625 0 12.5 5.597657 12.5 12.5v65.253907c-.027343 15.644531 9.714844 29.644531 24.390625 35.058593 6.660156 2.414063 13.277344 5.136719 19.632813 8.0625 14.175781 6.429688 30.855469 3.390625 41.84375-7.636719l46.113281-46.089843c4.933594-4.714844 12.71875-4.714844 17.660156 0l70.699219 70.699219c2.347656 2.34375 3.664063 5.53125 3.664063 8.84375 0 3.320312-1.316407 6.503906-3.664063 8.847656l-46.089844 46.082031c-11.011719 11.003906-14.046875 27.667969-7.636719 41.84375 2.964844 6.429687 5.679688 13.035156 8.074219 19.660156 5.421875 14.667969 19.425781 24.402344 35.058594 24.375h65.253906c6.90625 0 12.5 5.597657 12.5 12.5zm0 0" data-original="#000000" className="active-path" data-old_color="#000000" fill="#FFFEFE"/><path d="m373.332031 223.332031c-82.839843 0-150 67.160157-150 150 0 82.84375 67.160157 150 150 150 82.84375 0 150-67.15625 150-150-.089843-82.804687-67.191406-149.90625-150-150zm0 275c-69.035156 0-125-55.960937-125-125 0-69.035156 55.964844-125 125-125 69.039063 0 125 55.964844 125 125-.070312 69.003907-55.996093 124.929688-125 125zm0 0" data-original="#000000" className="active-path" data-old_color="#000000" fill="#FFFEFE"/><path d="m373.332031 310.832031c-34.515625 0-62.5 27.984375-62.5 62.5 0 34.519531 27.984375 62.5 62.5 62.5 34.519531 0 62.5-27.980469 62.5-62.5-.042969-34.5-27.996093-62.453125-62.5-62.5zm0 100c-20.707031 0-37.5-16.789062-37.5-37.5 0-20.707031 16.792969-37.5 37.5-37.5 20.710938 0 37.5 16.792969 37.5 37.5 0 20.710938-16.789062 37.5-37.5 37.5zm0 0" data-original="#000000" className="active-path" data-old_color="#000000" fill="#FFFEFE"/></g> </svg>
