<?xml version="1.0" encoding="UTF-8"?>
<svg class="" enable-background="new 0 0 512 512" version="1.1" viewBox="0 0 512 512" xml:space="preserve" xmlns="http://www.w3.org/2000/svg">
<g xmlns="http://www.w3.org/2000/svg">
	
		<path class="" d="m501.36 383.95-180.86-332.48c-29.059-48.921-99.896-48.986-128.99 0l-180.86 332.48c-29.706 49.989 6.259 113.29 64.482 113.29h361.74c58.174 0 94.203-63.251 64.497-113.29zm-245.36 53.291c-16.538 0-30-13.462-30-30s13.462-30 30-30 30 13.462 30 30-13.462 30-30 30zm30-120c0 16.538-13.462 30-30 30s-30-13.462-30-30v-150c0-16.538 13.462-30 30-30s30 13.462 30 30v150z" fill="#fff" style="" data-original="#000000"/>
	
</g>















</svg>
