<svg id="Слой_1" data-name="Слой 1" xmlns="http://www.w3.org/2000/svg" viewBox="0 0 3135.95 1886.89"><defs><style>.cls-1{fill:#e3eaff;}.cls-2{fill:#95a6db;}.cls-3{fill:#f37a50;}.cls-4{fill:#de623c;}.cls-5{fill:#201d40;}.cls-6{fill:#748ddb;}.cls-7{fill:#89a2f0;}.cls-8{fill:#e62552;}.cls-9{fill:#c4204a;}.cls-10{fill:#2c2858;}.cls-11{fill:#fff;}.cls-12{fill:#3f964f;}.cls-13{fill:#494c7f;}.cls-14{fill:#070635;}.cls-15{fill:#f5a3b7;}.cls-16{fill:#7890db;}.cls-17{fill:#4364cc;}.cls-18{fill:#768fdb;}.cls-19{fill:#95adf5;}.cls-20{fill:#0e6a41;}.cls-21{fill:#555994;}.cls-22{fill:#cfdbff;}.cls-23{fill:#bdcdff;}.cls-24{fill:#cdd8fa;}.cls-25{fill:#7f99eb;}</style></defs><path class="cls-1" d="M159.77,1963.56C-95.08,1581.41,50.37,1197.16,344,979.09c298.49-221.68-38.48-680.3,555.62-866.92C1207,15.63,1477.24,278.92,1778.48,290.36,2048.42,300.61,2327.66,68.42,2601.73,176,2785,237.9,2968.22,411.66,2954.56,619.43c-7.06,107.36-69.58,234.45-4.85,316,273.2,344.22,245,645.3,138,1023.3Z" transform="translate(-28.41 -90.93)"/><path class="cls-2" d="M3083.39,1977.82H137c-5.8,0-10.51-5-10.51-11.1h0c0-6.14,4.71-11.11,10.51-11.11H3083.39c5.8,0,10.5,5,10.5,11.11h0C3093.89,1972.85,3089.19,1977.82,3083.39,1977.82Z" transform="translate(-28.41 -90.93)"/><g id="c"><polygon id="v-2" class="cls-3" points="2270.3 882.67 2270.26 882.67 2240.45 882.77 2233.69 953.21 2268.5 971.58 2305.62 953.41 2299.62 882.77 2270.3 882.67"/><path class="cls-3" d="M2360,919.13c-4.54,49.19-39.53,86.17-78.17,82.61s-66.26-46.33-61.72-95.52,39.53-86.17,78.16-82.6S2364.51,870,2360,919.13Z" transform="translate(-28.41 -90.93)"/><path class="cls-4" d="M2271.21,923.81c-6.7,9.49-15.16,21.05-15.16,21.05s3,10.58,16.7,11.49c-5.66-2.72-11.17-6.94-8.38-14.52S2271.21,923.81,2271.21,923.81Z" transform="translate(-28.41 -90.93)"/><path d="M2374.25,879.16c2.3-46.78-41.18-60.37-41.18-60.37s9.46-3.76,6.57-17.76a37.45,37.45,0,0,1-22.75,6.22c-53.51-3.14-86.71,7-80.57,27.64,2.18,7.36-32.24,12.56-14.86,61.26,3.06-6,5.14-27.94,15.32-33.17s4.72,12.06,28.15,8.47c23.64-3.63,38.71-14.1,56.39-5.41,14.18,8,33.76,64,33.12,67.92C2355.9,925,2373.24,899.72,2374.25,879.16Z" transform="translate(-28.41 -90.93)"/><path d="M2220.77,933s5.6,26.4,11.69,33.28c.8-11.5,26.2-5.3,37.15-4.78,19.82.94,39.18-17.4,46.87,8.28,25.22.46,32.16-55.3,32.16-55.3,17.7,54.73-13.35,98-74.12,106.08C2234.48,1025.83,2215.11,973.63,2220.77,933Z" transform="translate(-28.41 -90.93)"/><path class="cls-4" d="M2287.46,974.33a51.69,51.69,0,0,0,10.29-8,2.25,2.25,0,1,0-3.16-3.2c-7.51,7.43-15.11,11.16-22.59,11.11a23.39,23.39,0,0,1-15.3-6.13,2.25,2.25,0,0,0-3.22,3.13,27.57,27.57,0,0,0,18.4,7.49A30.45,30.45,0,0,0,2287.46,974.33Z" transform="translate(-28.41 -90.93)"/><path d="M2301.58,922a7,7,0,1,0-6.83-7.2A7,7,0,0,0,2301.58,922Z" transform="translate(-28.41 -90.93)"/><path d="M2245.64,920.49a7,7,0,1,0-6.83-7.21A7,7,0,0,0,2245.64,920.49Z" transform="translate(-28.41 -90.93)"/><path d="M2233.63,906.81a3.34,3.34,0,0,0,2.95-1.57c1.81-2.88,4-4.57,6.38-5,4.18-.81,8.23,2.08,8.27,2.11a3.37,3.37,0,0,0,4-5.43c-.25-.19-6.37-4.65-13.47-3.32-4.36.82-8,3.54-10.89,8.08a3.38,3.38,0,0,0,1.06,4.66A3.33,3.33,0,0,0,2233.63,906.81Z" transform="translate(-28.41 -90.93)"/><path d="M2315.24,909.36A3.37,3.37,0,0,0,2318,904c-4.28-5.65-9.1-8.8-14.33-9.35a16.51,16.51,0,0,0-11.71,3.51,3.37,3.37,0,0,0,4.39,5.12,9.74,9.74,0,0,1,6.7-1.91c3.27.38,6.49,2.63,9.58,6.7A3.33,3.33,0,0,0,2315.24,909.36Z" transform="translate(-28.41 -90.93)"/><path class="cls-3" d="M2349.29,914.63c-8.08,8.34-9.11,20.46-2.29,27.08s18.91,5.23,27-3.11,9.12-20.46,2.29-27.08S2357.38,906.29,2349.29,914.63Z" transform="translate(-28.41 -90.93)"/><path class="cls-4" d="M2357.84,938a2.52,2.52,0,0,1-1-.61c-4.14-4.15-5.2-9.32-2.83-13.82a12.24,12.24,0,0,1,12.64-6.42,2.54,2.54,0,0,1-.91,5,7.22,7.22,0,0,0-7.23,3.78c-1.32,2.51-.64,5.3,1.93,7.87a2.54,2.54,0,0,1-2.61,4.2Z" transform="translate(-28.41 -90.93)"/><path class="cls-5" d="M2244.29,1895c-26.36,36.38-91.11,14.06-89,63.26,98.46-.63,139.39,0,139.39,0-.13-11.3-2.08-38.12-4.35-48.62Z" transform="translate(-28.41 -90.93)"/><path class="cls-5" d="M2389.28,1895c-26.36,36.38-91.11,14.06-89,63.26,98.47-.63,139.39,0,139.39,0-.13-11.3-2.08-38.12-4.35-48.62Z" transform="translate(-28.41 -90.93)"/><path class="cls-6" d="M2180.35,1339.9s-9.44,240.52-2.94,292.36,42.05,109.88,39.44,281.34c32.1,8,78.61,0,78.61,0s6.89-193.87-27-280.46c13.8-84.12,58.07-276.77,58.07-276.77Z" transform="translate(-28.41 -90.93)"/><path class="cls-7" d="M2249.19,1346s32.28,261.76,48.08,311.4,39.54,86.41,68.15,255.32c33,1.65,63.13,5.39,63.13,5.39s15-216.32-36.33-265c-1.74-85.29-3.54-305.38-3.54-305.38Z" transform="translate(-28.41 -90.93)"/><g id="v"><path id="h-5" class="cls-8" d="M2408.27,1048.93s-56.06-19.62-74.76-10.62c-58.09,28-71.41,0-71.41,0-20.38-4.52-68.51-4.52-68.51-4.52-6.09,81.31-24.31,341-24.31,341s69.93,16.59,128.41,17c58.47-.38,118-16,118-16s-3.12-113.67-5.71-155.92C2410.8,1172.52,2408.27,1111.34,2408.27,1048.93Z" transform="translate(-28.41 -90.93)"/></g><path class="cls-9" d="M2408.27,1048.93c51.23,22,114.07,72.82,152.75,153.27,13.27,27.58-49.79,33.15-62.36,22.28s-90.39-92.09-90.39-92.09Z" transform="translate(-28.41 -90.93)"/><polygon class="cls-9" points="2165.19 942.85 1922.64 1042.36 1934.75 1103.54 2159.48 1039.69 2165.19 942.85"/></g><path d="M2666.07,1894.72c-27,36-93.15,13.89-91,62.52,100.66-.62,142.5,0,142.5,0-.14-11.17-2.13-37.68-4.45-48Z" transform="translate(-28.41 -90.93)"/><path d="M2816.68,1895.67c-27,35.95-93.15,13.89-91,62.52,100.66-.63,142.5,0,142.5,0-.13-11.17-2.13-37.68-4.45-48.06Z" transform="translate(-28.41 -90.93)"/><path class="cls-5" d="M2619.47,1345.82s-27.32,231.48-20.68,282.71,36.92,117.23,34.26,286.69c32.81,7.94,84.56-1.36,84.56-1.36s7-191.61-27.64-277.19c14.1-83.13,59.37-273.54,59.37-273.54Z" transform="translate(-28.41 -90.93)"/><path class="cls-10" d="M2681.58,1352.12s33,258.71,49.16,307.78,37.07,84.27,66.32,251.21c33.72,1.63,84.49-.39,84.49-.39s-13.33-205.08-65.85-253.23c-1.78-84.3,8.49-303.71,8.49-303.71Z" transform="translate(-28.41 -90.93)"/><path class="cls-3" d="M2775.42,901.39c-3,48.05-36.09,85.07-73.83,82.68s-65.87-43.27-62.83-91.32,36.09-85.07,73.83-82.68S2778.46,853.34,2775.42,901.39Z" transform="translate(-28.41 -90.93)"/><path d="M2668.08,906.58a7.13,7.13,0,1,1-2.72-9.7A7.12,7.12,0,0,1,2668.08,906.58Z" transform="translate(-28.41 -90.93)"/><path d="M2725.86,907.22a7.72,7.72,0,1,1-3-10.51A7.72,7.72,0,0,1,2725.86,907.22Z" transform="translate(-28.41 -90.93)"/><path class="cls-4" d="M2684.5,907.91c-3.37,10.82-7.74,24.08-7.74,24.08s6,8.9,18.93,5.64c-6.07-.82-12.44-3.08-12.13-11S2684.5,907.91,2684.5,907.91Z" transform="translate(-28.41 -90.93)"/><path class="cls-5" d="M2662.5,884.08a2.72,2.72,0,0,1-2.67-.39,8,8,0,0,0-5.68-1.47c-2.06.41-3.93,2-5.55,4.87a2.74,2.74,0,1,1-4.74-2.74c2.47-4.27,5.6-6.79,9.3-7.51,5.42-1,9.85,2.4,10,2.54a2.73,2.73,0,0,1,.45,3.84A2.67,2.67,0,0,1,2662.5,884.08Z" transform="translate(-28.41 -90.93)"/><path class="cls-5" d="M2715.26,882.15a2.72,2.72,0,0,0,2.68-.39,8,8,0,0,1,5.67-1.46c2.06.41,3.93,2.05,5.56,4.86a2.73,2.73,0,1,0,4.73-2.73c-2.46-4.27-5.59-6.8-9.3-7.51-5.42-1-9.85,2.39-10,2.54a2.74,2.74,0,0,0-.46,3.84A2.65,2.65,0,0,0,2715.26,882.15Z" transform="translate(-28.41 -90.93)"/><path class="cls-5" d="M2761.16,931.06c-19.73-23.13-5.75-62.28-5.75-62.28-11.26-1.15-15.19,3.08-15.19,3.08-7.22-11.8-3.4-21.12-3.4-21.12-23.7-6.72-33.66,9.16-53.8,16.12-27.59,9.53-63.53,1.61-70.1-32.54a5.91,5.91,0,0,1,8.66-6.31,26.11,26.11,0,0,0,15.81,3,27.84,27.84,0,0,1-7.74-15.31,5.9,5.9,0,0,1,9.27-5.51c6.34,4.33,17.67,7.9,36.74,2.4,12.69-3.65,40.29-27.18,59.1-24.9,15.38,1.86,28.56,13.54,35.46,31.39,0,0,37.4.3,45,40.69,7.48,39.69-54,88.63-54,88.63S2766.23,938,2761.16,931.06Z" transform="translate(-28.41 -90.93)"/><path class="cls-11" d="M2669.14,950.07a2.1,2.1,0,0,1,1.91-3.35,148.67,148.67,0,0,0,39.46-.25,2.09,2.09,0,0,1,1.95,3.32c-3.36,4.59-10.3,11.56-21.58,11.63S2672.56,954.62,2669.14,950.07Z" transform="translate(-28.41 -90.93)"/><path d="M2719.11,924.53c-12.47,0-22.62-8.86-22.62-19.75S2706.64,885,2719.11,885s22.62,8.85,22.62,19.74S2731.58,924.53,2719.11,924.53Zm0-34.44c-9.69,0-17.56,6.59-17.56,14.69s7.87,14.69,17.56,14.69,17.56-6.59,17.56-14.69S2728.79,890.09,2719.11,890.09Z" transform="translate(-28.41 -90.93)"/><path d="M2660.48,923.13c-11.55,0-21-8.21-21-18.3s9.41-18.3,21-18.3,21,8.21,21,18.3S2672,923.13,2660.48,923.13Zm0-31.91c-9,0-16.27,6.1-16.27,13.61s7.3,13.62,16.27,13.62,16.28-6.11,16.28-13.62S2669.46,891.22,2660.48,891.22Z" transform="translate(-28.41 -90.93)"/><path d="M2696.86,907.93a26.46,26.46,0,0,0-16.71-1l-2.11-6.54a33.17,33.17,0,0,1,21.54,1.25Z" transform="translate(-28.41 -90.93)"/><polygon points="2709.13 815.85 2709.09 808.97 2731.63 809.57 2731.66 816.45 2709.13 815.85"/><path class="cls-3" d="M2757.83,899.43c-9.28,6.49-12.49,17.91-7.17,25.5s17.14,8.47,26.42,2,12.48-17.91,7.16-25.5S2767.1,892.93,2757.83,899.43Z" transform="translate(-28.41 -90.93)"/><path class="cls-4" d="M2761.72,923.36a2.6,2.6,0,0,1-.84-.78c-3.2-4.73-3.26-9.87-.17-13.74A11.94,11.94,0,0,1,2774,905a2.48,2.48,0,0,1-1.79,4.62,7.08,7.08,0,0,0-7.62,2.29c-1.72,2.16-1.58,5,.4,7.89a2.48,2.48,0,0,1-3.26,3.55Z" transform="translate(-28.41 -90.93)"/><polygon class="cls-2" points="2640.25 913.2 2685.33 904.6 2730.5 912.66 2685.81 968.42 2640.25 913.2"/><path class="cls-12" d="M2766.93,1017.41l-109.73,9.46h0l-42.39,3,5.34,251.09-5.16,78.49c58.72,13.49,152.9,3.83,214.64-10.78l-10.32-86.77L2833,1034.29Z" transform="translate(-28.41 -90.93)"/><path class="cls-3" d="M2684.41,1029.91c20,13.44,43.46,14.77,64.58,0V964.42l-64.58,1.09Z" transform="translate(-28.41 -90.93)"/><path class="cls-11" d="M2714,1039.89s-15.29,18.71-30.44,24.57l-30.35-39.83,15.45-20.5Z" transform="translate(-28.41 -90.93)"/><path class="cls-11" d="M2714,1039.89a81.93,81.93,0,0,0,30.73,24.21l30.84-44.49-16.66-16Z" transform="translate(-28.41 -90.93)"/><g id="c-2" data-name="c"><path class="cls-3" d="M2865.87,1309.39l-21.28,15.24s-9.17-13.37-19.17-11.37l2.36,19.93s-.11,13.73-31,16.25c-25.21,9.8-5.11,19.48-11.6,25.51-9.57,8.89,23,22.4,47,10.92,31.09-14.87,30.67-27.83,30.67-27.83l17-21Z" transform="translate(-28.41 -90.93)"/></g><path class="cls-12" d="M2833,1034.29s103,53.62,151.5,169.5c-30.31,42.67-70.55,18.37-70.55,18.37l-88.4-90.06Z" transform="translate(-28.41 -90.93)"/><path class="cls-12" d="M2849.8,1313.94l64.18-91.78s13.51-36.23,70.55-18.37c4,30.11-4.42,75.52-102,146C2875.41,1333.09,2849.8,1313.94,2849.8,1313.94Z" transform="translate(-28.41 -90.93)"/><path class="cls-12" d="M2614.81,1029.91s-102.88,53.46-151.53,169.27c30.25,42.71,70.52,18.47,70.52,18.47l88.54-89.94Z" transform="translate(-28.41 -90.93)"/><path class="cls-5" d="M1964.07,1024.81c30.57-.29,137.58,166.36,137.58,166.36l19.48,195.5-49.86,2-46.37-170.82-48.38-25.51Z" transform="translate(-28.41 -90.93)"/><g id="c-3" data-name="c"><path class="cls-3" d="M1723.32,1344.5l-.61,26.17s18.68-.56,19.33,12.19l-17.54.55s-10.67,13.78,4.63,40.68c6.1,26.35-13.21,15.2-14.54,24-1.95,12.91-27.46-9.23-31.51-35.56-5.24-34.06,1.71-38.15,1.71-38.15l7.72-25.86Z" transform="translate(-28.41 -90.93)"/></g><path class="cls-5" d="M1748.53,1046.45c-29.86,6.58-84.79,183.78-84.79,183.78l16.48,135.5,49.59-5.55-3-105.65L1764,1154.38Z" transform="translate(-28.41 -90.93)"/><path d="M1813.6,1902.28c-26.95,36-93.14,13.89-90.95,62.52,100.66-.63,142.49,0,142.49,0-.13-11.17-2.12-37.68-4.44-48.06Z" transform="translate(-28.41 -90.93)"/><path d="M1964.2,1903.22c-27,36-93.14,13.89-91,62.52,100.66-.63,142.49,0,142.49,0-.13-11.17-2.12-37.68-4.45-48Z" transform="translate(-28.41 -90.93)"/><path class="cls-5" d="M1755.72,1351.91s-16.16,231.62-9.52,282.84,41.25,117.23,38.59,286.67c32.81,7.94,80.35,0,80.35,0s7-191.6-27.64-277.18c14.1-83.12,59.37-273.52,59.37-273.52Z" transform="translate(-28.41 -90.93)"/><path class="cls-10" d="M1855.54,1360s6.57,258.39,22.73,307.45,42.47,81.4,71.72,248.32c33.72,1.63,82.28,2.33,82.28,2.33s-23.83-210.41-76.35-258.57c-1.78-84.29,15.79-298.17,15.79-298.17Z" transform="translate(-28.41 -90.93)"/><polygon class="cls-2" points="1782.01 927.29 1826.92 917.89 1872.23 925.14 1828.54 981.69 1782.01 927.29"/><path class="cls-3" d="M1822.74,1048.25a60.4,60.4,0,0,0,68.26-1.8l-1-69.36-64.55,2.23Z" transform="translate(-28.41 -90.93)"/><path class="cls-2" d="M1915.06,1039.07h0l-14.06-3.79-.36-19.21-33.91,34.22-10.35,2.87-10.47-2.38-35.49-32.56.55,19.2-11.6,3.73h0l-42,11.8,21.93,238.18-7.7,82.75c59,12.43,123,9.93,184.47-5.78l-11.33-80.91,18-237.25Z" transform="translate(-28.41 -90.93)"/><polygon class="cls-10" points="1817.26 986.89 1803.71 1170.96 1820.13 1190.57 1838.46 1174.21 1831.4 987.38 1817.26 986.89"/><polygon class="cls-10" points="1806.17 964.35 1823.04 960.74 1841.75 964.71 1831.41 987.74 1817.21 987.51 1806.17 964.35"/><path class="cls-10" d="M1806.69,1026.76l1.52,207.94,4.42,146.37s-41.86,14.94-73.09-8.67l8.43-326Z" transform="translate(-28.41 -90.93)"/><polygon class="cls-13" points="1779.31 933.63 1780.24 1158.19 1747.23 983.95 1779.31 933.63"/><path class="cls-10" d="M1901.88,1018.13,1891,1386.77s75.78,13.28,106.71-7.16L1981,1263.12,1966,1024.83Z" transform="translate(-28.41 -90.93)"/><polygon class="cls-13" points="1872.75 926.48 1866.84 1152.01 1906.08 974.47 1872.75 926.48"/><g id="c-4" data-name="c"><path class="cls-3" d="M2065.53,1369.32l.6,26.17s-18.67-.55-19.33,12.2l17.54.54s10.67,13.79-4.63,40.69c-6.1,26.35,13.21,15.2,14.54,23.95,1.95,12.92,27.46-9.23,31.51-35.55,5.24-34.06-1.71-38.15-1.71-38.15l-7.71-25.86Z" transform="translate(-28.41 -90.93)"/></g><path class="cls-3" d="M1912.2,927.69c-10.24,47-48.48,78.66-85.43,70.62s-58.6-52.68-48.37-99.72,48.48-78.67,85.43-70.63S1922.43,880.65,1912.2,927.69Z" transform="translate(-28.41 -90.93)"/><path d="M1800.75,916.56a7.09,7.09,0,1,1,4.76-8.82A7.1,7.1,0,0,1,1800.75,916.56Z" transform="translate(-28.41 -90.93)"/><path d="M1858.63,914.56a7.12,7.12,0,1,1-2.89-9.64A7.11,7.11,0,0,1,1858.63,914.56Z" transform="translate(-28.41 -90.93)"/><path class="cls-4" d="M1813,911.14c-5.08,11.56-11.59,25.71-11.59,25.71s5.51,10.61,20.27,8.62c-6.61-1.67-13.4-5-12.06-13.66S1813,911.14,1813,911.14Z" transform="translate(-28.41 -90.93)"/><path class="cls-10" d="M1866.36,903.79a3.29,3.29,0,0,1-3.94-1c-.22-.29-5.69-7.22-12.41-4.29a3.28,3.28,0,0,1-2.62-6c9.18-4,17.26,2.39,20.26,6.33a3.29,3.29,0,0,1-.63,4.6A3.18,3.18,0,0,1,1866.36,903.79Z" transform="translate(-28.41 -90.93)"/><path class="cls-10" d="M1786.22,903.79a3.28,3.28,0,0,0,3.93-1c.23-.29,5.69-7.22,12.41-4.29a3.28,3.28,0,1,0,2.63-6c-9.18-4-17.26,2.39-20.26,6.33a3.28,3.28,0,0,0,.63,4.6A3.18,3.18,0,0,0,1786.22,903.79Z" transform="translate(-28.41 -90.93)"/><path class="cls-10" d="M1904.94,929.61c-2-17.36-16.67-12-20.88-34.69s-8.35-39.85-29.65-33.61-27.08,1.7-36.44-2.46c-28.13-12.48-38.55,35.45-38.55,35.45s-20.35-38.51.69-59.55c23.32-23.34,30.2-7.32,51.92-24.28s56.37-11.08,64.8,2.39c8.89,14.21,11.38,24.82,32.91,33s33.67,24.61,17.16,48.49,16.52,36.13-13.05,59.79c-11.47,9.17-32.61,13.41-36.51,9.35C1892.11,958.1,1906.21,940.81,1904.94,929.61Z" transform="translate(-28.41 -90.93)"/><path class="cls-10" d="M1775.9,924.37s3.57,23.37,8.8,30.5c1.78-11,12.12-1.79,20-2.3,19.06-1.25,51.34-14.13,60.22,13.07,24.13,2.66,36.77-49.22,36.77-49.22,12.14,54-22.51,91.82-81.48,94.19C1781.38,1012.17,1766.89,962.86,1775.9,924.37Z" transform="translate(-28.41 -90.93)"/><path class="cls-11" d="M1798,967.87a2.09,2.09,0,0,1,1.84-3.38,178.47,178.47,0,0,0,19.76.84,176,176,0,0,0,19.69-1.8,2.1,2.1,0,0,1,2,3.29c-3.27,4.65-10.1,11.74-21.37,12S1801.5,972.35,1798,967.87Z" transform="translate(-28.41 -90.93)"/><path class="cls-3" d="M1897.55,917.81c-8,8.57-8.75,20.81-1.74,27.34S1915,950,1923,941.45s8.76-20.81,1.74-27.34S1905.53,909.24,1897.55,917.81Z" transform="translate(-28.41 -90.93)"/><path class="cls-4" d="M1906.65,941.17a2.51,2.51,0,0,1-1-.6c-4.25-4.09-5.43-9.27-3.14-13.86a12.32,12.32,0,0,1,12.6-6.73,2.56,2.56,0,1,1-.81,5,7.32,7.32,0,0,0-7.21,4c-1.27,2.56-.52,5.36,2.11,7.89a2.56,2.56,0,0,1-2.54,4.29Z" transform="translate(-28.41 -90.93)"/><polygon class="cls-11" points="1823.04 960.74 1855.62 989.72 1880.84 938.12 1872.23 925.14 1823.04 960.74"/><polygon class="cls-11" points="1823.04 960.74 1797.98 987.34 1774.4 941.33 1782.01 927.29 1823.04 960.74"/><path class="cls-3" d="M1529.33,1866.56c2.62-26.08-10.84-224.57-10.84-224.57-38-174.5-23.11-299.42-23.11-299.42l65.41,4.6,25.78,98.61-12.22,164.68s4.59,12.68,7,22.81c13.13,55,.05,120.67-8,164.46-3.74,20.29-9.57,62.94-9.73,72.63L1580,1891.6s-59.48,65.82-68.62,66.23c-17.79.81-12.55-16.8-12.55-16.8C1523.31,1915.92,1528.59,1874,1529.33,1866.56Z" transform="translate(-28.41 -90.93)"/><path class="cls-8" d="M1581,1914.92l-3.27,42.29-7.6.35-3.84-39.28c-20.24,5.17-34.73,41.88-34.73,41.88-13.93,5-49.36,8.43-62,1.93-3-12.35,29.29-21,29.29-21,2.92,3.45,20.17,6.1,26.3,2.4,22.56-19.21,33.56-47.15,38.37-73.12C1563.59,1870.36,1599.25,1872.84,1581,1914.92Z" transform="translate(-28.41 -90.93)"/><path class="cls-3" d="M1551.45,1355.27l92.15-12.7c35.25,79.76,46.74,218.61,56.31,268.08,38.41,64.4,50.61,259.71,50.61,259.71L1767,1891.6s-59.47,65.82-68.62,66.23c-17.78.81-12.54-16.8-12.54-16.8,24.44-25.11,29.21-58.46,30.79-65.79,2.38-11-74.59-227.7-74.59-227.7l-8.21-20.56c-94-155.26-109.43-272.64-109.43-272.64Z" transform="translate(-28.41 -90.93)"/><path class="cls-8" d="M1768,1914.92l-3.27,42.29-7.6.35-3.85-39.28c-20.23,5.17-34.73,41.88-34.73,41.88-13.93,5-49.35,8.43-62,1.93-3-12.35,29.28-21,29.28-21,2.92,3.45,20.17,6.1,26.3,2.4,22.57-19.21,33.57-47.15,38.38-73.12C1750.52,1870.36,1786.17,1872.84,1768,1914.92Z" transform="translate(-28.41 -90.93)"/><path d="M1517.67,1129c-30-10.46-93.76-42.65-63.55-86s43-25.22,31.42-77.42,25.13-93.76,60.71-83.73,44.94,38.62,88.33,30.88,80,32.52,64,67.95-22.78,52.49-7.26,71.84,84.68,39.61,56.44,86.68-41.45,44.34-31.2,68.2-12.48,51.39-52.49,48.11-76.35-18-91.5-62.47S1517.67,1129,1517.67,1129Z" transform="translate(-28.41 -90.93)"/><path class="cls-9" d="M1525.63,1115.36c-13.58,1.4-29.64,8.3-35.49,24.45s-2.12,58.36-2.12,58.36Z" transform="translate(-28.41 -90.93)"/><path class="cls-3" d="M1600.77,1071.79l-.45,59.11s-28.68,17.45-51.32,3.51c3.48-17.41,8.55-57.14,8.55-57.14Z" transform="translate(-28.41 -90.93)"/><path class="cls-3" d="M1518.52,1003.18c0,43.91,26.49,79.51,59.16,79.51s59.15-35.6,59.15-79.51-26.48-79.52-59.15-79.52S1518.52,959.26,1518.52,1003.18Z" transform="translate(-28.41 -90.93)"/><path d="M1640.76,1003.18c-32.65-4.18-63-22.37-80.16-45.89-11.08,27.48-42.08,45.89-42.08,45.89s-23.23-52.57,19-80.93C1577.85,895.19,1674,913.68,1640.76,1003.18Z" transform="translate(-28.41 -90.93)"/><path d="M1602.56,1020.15a6.29,6.29,0,1,0-6.29-6.29A6.29,6.29,0,0,0,1602.56,1020.15Z" transform="translate(-28.41 -90.93)"/><path d="M1552.46,1020.15a6.29,6.29,0,1,0-6.29-6.29A6.29,6.29,0,0,0,1552.46,1020.15Z" transform="translate(-28.41 -90.93)"/><path d="M1541.38,1008.19a3,3,0,0,0,2.6-1.48c1.55-2.61,3.43-4.18,5.59-4.66,3.73-.82,7.42,1.66,7.46,1.69a3,3,0,0,0,3.45-5c-.24-.16-5.82-4-12.15-2.64-3.88.84-7.09,3.36-9.54,7.49a3,3,0,0,0,2.59,4.56Z" transform="translate(-28.41 -90.93)"/><path d="M1614.49,1008.5a3,3,0,0,0,2.35-4.91c-4-5-8.36-7.65-13-8a14.82,14.82,0,0,0-10.4,3.42,3,3,0,0,0,4.06,4.48,8.64,8.64,0,0,1,6-1.87c2.93.25,5.87,2.19,8.73,5.76A3,3,0,0,0,1614.49,1008.5Z" transform="translate(-28.41 -90.93)"/><path class="cls-4" d="M1571.44,1022.11c-8.13,5.86-10.67,8.27-13.81,10.22,2.17,7.26,13.56,10.87,16.8,10-7.93-3.91-9-9.2-9-9.2Z" transform="translate(-28.41 -90.93)"/><path class="cls-3" d="M1628,1009.31c-6.78,8.59-7.11,19.62-.75,24.64s17,2.14,23.79-6.44,7.12-19.62.76-24.64S1634.77,1000.73,1628,1009.31Z" transform="translate(-28.41 -90.93)"/><path class="cls-4" d="M1633.94,1027.86a2,2,0,0,0,.78-.16,2,2,0,0,0,1.07-2.64c-1.43-3.4-1.46-6.14-.09-8.13,2.12-3.09,7.12-4,10.75-3.92a2,2,0,0,0,.14-4c-4.88-.16-11.17,1.24-14.21,5.65-1.51,2.21-2.79,6.07-.29,12A2,2,0,0,0,1633.94,1027.86Z" transform="translate(-28.41 -90.93)"/><path class="cls-11" d="M1593.37,1053.1a1.83,1.83,0,0,0-1.93-2.76,152.7,152.7,0,0,1-17.07,2.68,154.69,154.69,0,0,1-17.28.39,1.82,1.82,0,0,0-1.41,3c3.29,3.71,9.92,9.2,19.74,8.32S1590.78,1057.33,1593.37,1053.1Z" transform="translate(-28.41 -90.93)"/><path class="cls-9" d="M1652.93,1112.3s76.63,34,119.45,123c-25,35.2-52,14.26-52,14.26L1649,1193.82s-18.15-32.86-15.81-50.19C1636.68,1117.89,1652.93,1112.3,1652.93,1112.3Z" transform="translate(-28.41 -90.93)"/><path class="cls-14" d="M1639.75,1603.56c24.66-4.46,48.31-4.44,62.18-4.13-8.77-29.37-3.78-212.54-59.42-274.89L1500,1326.43c-49.57,85.06-23.31,214.54-53.94,266.17,12,5.78,38,16.81,81.88,21.25C1576.53,1618.75,1598.09,1611.09,1639.75,1603.56Z" transform="translate(-28.41 -90.93)"/><path class="cls-15" d="M1501.26,1289.22c0-29.11-25.23-72.71-13.13-102.1,8.8-23.64,24.23-66.25,42.25-72.88,8.5-3.12,12.68-5.51,23.27-8.44,0,0,.56,22.52,13,23.52,24,1.92,33.89-28.91,33.89-28.91,12.93-1.23,60.68,12.32,60.65,17.19-.14,38.13-16.91,99.79-27,141a185.06,185.06,0,0,0,1.71,49.15c3.84,12.38,10.48,18.75,10.51,21.43,0,0-90.81,30.9-147.34-.22C1499,1329,1501.26,1308.88,1501.26,1289.22Z" transform="translate(-28.41 -90.93)"/><path class="cls-8" d="M1611.12,1101.2s-28,104.53-28,148.73c0,50.23,25.76,134.91,25.76,134.91l63-2.47s-7.71-35.28-26.94-66.64c-19.85-32.38,1.94-101.45,6.75-119.83s12.62-77.63,12.62-77.63S1638.06,1101,1611.12,1101.2Z" transform="translate(-28.41 -90.93)"/><path class="cls-8" d="M1544.34,1108.77c-6.27,13.3-30.5,67.83-29,101s4.59,147-4.49,178c-22.64-.67-33-7.5-33-7.5-3.23-8.74,30.69-58.87,21.55-97.83s-17.11-66.72-14.59-82.68c2.81-17.89,16.67-63.26,40.78-84.35A158,158,0,0,1,1544.34,1108.77Z" transform="translate(-28.41 -90.93)"/><g id="c-5" data-name="c"><path class="cls-3" d="M1661.3,1316.61l-4,1.69s-8.23-11.11-16.64-10.69l5.14,10.82s-9.67,15.91-35.14,14.23c-21.76,4.94-6.54,15.27-12.57,19.41-8.88,6.09,16,21.07,37,14.61,27.17-8.36,44.83-34,44.83-34Z" transform="translate(-28.41 -90.93)"/></g><path class="cls-9" d="M1661.3,1316.61l57.7-72.85s12.15-23.24,53.38-8.45c2,22.17-21.71,52.36-95.25,101Z" transform="translate(-28.41 -90.93)"/><path class="cls-5" d="M2477.43,901.07c-51.28-14.47-153.72,27-123.91,213.54s163.94,160.65,163.94,160.65,61.55-19.35,67.07-137.86S2563.68,925.41,2477.43,901.07Z" transform="translate(-28.41 -90.93)"/><path class="cls-16" d="M2414.7,1159.63c-10.92,31.45-51.89,93-66.52,104.24-9.74-13.88-45.71-7-45.71-7s36-87.15,68.44-129.38C2386.06,1099.09,2432.63,1108.31,2414.7,1159.63Z" transform="translate(-28.41 -90.93)"/><path class="cls-3" d="M2302.47,1256.91c7,38.33,53.31,88.15,53.31,88.15s5.21-3,6.35-25.58c-5.75-15.47-14-55.61-14-55.61S2329.94,1244.27,2302.47,1256.91Z" transform="translate(-28.41 -90.93)"/><path class="cls-3" d="M2432.89,1070.49l38.23-5.72-3,35.48s-19.36,34.89-37.73,28.88-9.41-21.42-9.41-21.42Z" transform="translate(-28.41 -90.93)"/><path class="cls-3" d="M2501.7,1012.92c-6.21,41.93-37.94,72-70.87,67.08s-54.58-42.82-48.37-84.75,37.95-72,70.87-67.07S2507.91,971,2501.7,1012.92Z" transform="translate(-28.41 -90.93)"/><path class="cls-5" d="M2465.92,1001.61a2.13,2.13,0,0,1-1.17-.84c-4.27-6.13-12.86-5.95-12.94-5.95a2.18,2.18,0,0,1-.15-4.36c.45,0,11-.28,16.66,7.82a2.17,2.17,0,0,1-.54,3A2.12,2.12,0,0,1,2465.92,1001.61Z" transform="translate(-28.41 -90.93)"/><path class="cls-5" d="M2392.48,1000.4a2.12,2.12,0,0,1-.61-.37,2.18,2.18,0,0,1-.26-3.07,15.28,15.28,0,0,1,14.8-5,2.18,2.18,0,0,1-1,4.23,10.91,10.91,0,0,0-10.43,3.63A2.19,2.19,0,0,1,2392.48,1000.4Z" transform="translate(-28.41 -90.93)"/><path class="cls-4" d="M2422.88,1018.14c-2.74,3.37-5.1,6.8-7.82,8.87a2.18,2.18,0,0,0-.46,3c2.69,3.92,9.77,6.71,14.09,8.11a.58.58,0,0,0,.52-1c-4.52-3.32-6.56-5.87-7.45-7.29a2.61,2.61,0,0,1-.2-2.35c.71-1.78,2.12-5.4,3-8.38A1,1,0,0,0,2422.88,1018.14Z" transform="translate(-28.41 -90.93)"/><path class="cls-11" d="M2450.47,1049.81a1.74,1.74,0,0,0-1.75-2.67,123.13,123.13,0,0,1-32.66,2,1.74,1.74,0,0,0-1.43,2.86c3,3.61,9.16,9,18.49,8.43S2447.9,1053.75,2450.47,1049.81Z" transform="translate(-28.41 -90.93)"/><path class="cls-5" d="M2515.1,1009.09c-38.94-1.77-90.16-37.71-96.35-57.44,5.32-24.84,24.89-38.87,48.28-29.64S2528.73,977.23,2515.1,1009.09Z" transform="translate(-28.41 -90.93)"/><path class="cls-5" d="M2427.65,961.62s-23.18,23.56-46.65,28.94c8.22-27.47,14.08-48.3,28.17-55s29.62-7.92,29.62-7.92Z" transform="translate(-28.41 -90.93)"/><path class="cls-3" d="M2492.6,1006.41c-7.3,6.79-8.71,17.13-3.16,23.11s16,5.31,23.27-1.48,8.71-17.13,3.16-23.1S2499.9,999.63,2492.6,1006.41Z" transform="translate(-28.41 -90.93)"/><path class="cls-4" d="M2498.89,1026.81a2.17,2.17,0,0,1-.82-.57c-3.36-3.74-4-8.21-1.82-12a10.51,10.51,0,0,1,11.12-4.94,2.18,2.18,0,0,1-1,4.24,6.23,6.23,0,0,0-6.37,2.92c-1.24,2.09-.77,4.52,1.31,6.83a2.18,2.18,0,0,1-2.42,3.49Z" transform="translate(-28.41 -90.93)"/><path d="M2461.73,1008a6.69,6.69,0,1,1-6.69-6.69A6.7,6.7,0,0,1,2461.73,1008Z" transform="translate(-28.41 -90.93)"/><path d="M2413,1008a6.7,6.7,0,1,1-6.7-6.69A6.7,6.7,0,0,1,2413,1008Z" transform="translate(-28.41 -90.93)"/><path class="cls-3" d="M2397.1,1874c2.56-25.53-10.61-219.83-10.61-219.83-37.25-170.82-22.62-293.09-22.62-293.09l64,4.5,25.23,96.52-12,161.21s4.5,12.4,6.87,22.33c12.85,53.81,0,118.12-7.87,161-3.67,19.86-9.37,61.61-9.52,71.09l16.08,20.8s-58.21,64.43-67.17,64.84c-17.41.78-12.28-16.46-12.28-16.46C2391.2,1922.28,2396.37,1881.27,2397.1,1874Z" transform="translate(-28.41 -90.93)"/><path class="cls-9" d="M2447.72,1921.3l-3.2,41.4-7.44.33-3.77-38.44c-19.8,5.05-34,41-34,41-13.64,4.9-48.32,8.25-60.66,1.89-3-12.09,28.67-20.57,28.67-20.57,2.85,3.39,19.75,6,25.74,2.35,22.09-18.8,32.86-46.15,37.57-71.58C2430.64,1877.67,2465.54,1880.11,2447.72,1921.3Z" transform="translate(-28.41 -90.93)"/><path class="cls-3" d="M2418.75,1373.46,2509,1361c34.5,78.07,45.75,214,55.12,262.41,37.59,63,49.53,254.22,49.53,254.22l16.09,20.8s-58.22,64.43-67.17,64.84c-17.41.78-12.28-16.46-12.28-16.46,23.93-24.57,28.59-57.22,30.14-64.4,2.33-10.8-73-222.89-73-222.89l-8-20.12c-92-152-107.12-266.88-107.12-266.88Z" transform="translate(-28.41 -90.93)"/><path class="cls-9" d="M2630.7,1921.3l-3.21,41.4-7.44.33-3.76-38.44c-19.8,5.05-34,41-34,41-13.64,4.9-48.32,8.25-60.66,1.89-3-12.09,28.66-20.57,28.66-20.57,2.86,3.39,19.75,6,25.75,2.35,22.09-18.8,32.86-46.15,37.56-71.58C2613.61,1877.67,2648.51,1880.11,2630.7,1921.3Z" transform="translate(-28.41 -90.93)"/><path class="cls-14" d="M2586.45,1614.58c-9-30.14-5.08-245.87-84.61-304.53L2365,1324.47c-31.62,51.19-20,184.38-9.37,294C2420,1641.44,2471.12,1650.65,2586.45,1614.58Z" transform="translate(-28.41 -90.93)"/><path class="cls-2" d="M2363.32,1290.7c0-30-26-74.86-13.52-105.12,9.07-24.33,24.95-68.21,43.5-75,8.76-3.22,17-2.43,27.93-5.45,0,0-3.39,20,9.43,21,24.68,2,37.65-29.66,37.65-29.66,13.3-1.27,59.71,12.58,59.68,17.59-.14,39.26-17.41,102.74-27.84,145.18-1.93,21.62-.4,38.38,1.76,50.61,4,12.75,8.78,20,8.81,22.8,0,0-91.48,31.08-149.68-1C2361,1331.63,2363.32,1310.94,2363.32,1290.7Z" transform="translate(-28.41 -90.93)"/><g id="c-6" data-name="c"><path class="cls-3" d="M2526.08,1319.19l-7.8,3.11s-8.13-12.92-16.37-12.51l4.11,12.34s-4.66,14.43-29.63,12.78c-21.32,4.85-6.41,15-12.31,19-8.71,6,15.72,20.65,36.31,14.32,26.63-8.19,43.94-33.35,43.94-33.35Z" transform="translate(-28.41 -90.93)"/></g><path class="cls-3" d="M2526.08,1111.65s65.18,38.18,96.74,129.7c-28.35,31.42-52.23,8-52.23,8l-63.15-62.39s-18.56-22.8-9.69-50.65C2505.49,1112,2526.08,1111.65,2526.08,1111.65Z" transform="translate(-28.41 -90.93)"/><path class="cls-3" d="M2526.08,1319.19l45.56-66.74s10.77-25.6,51.18-11.1c1.95,21.73-13.78,52.67-85.85,100.34A159.82,159.82,0,0,0,2526.08,1319.19Z" transform="translate(-28.41 -90.93)"/><path class="cls-11" d="M2430.66,1126.07c-2.2,10.27,3.76,22.58,21,16.81,20.6-6.91,30.23-45.58,30.23-45.58l-12.92-7S2459.12,1117,2430.66,1126.07Z" transform="translate(-28.41 -90.93)"/><path class="cls-11" d="M2430.66,1126.07c-2.55,5.29-17,18.85-23.9,10.78s1.15-29.28,1.15-29.28l15.62-7.94S2417.4,1118.73,2430.66,1126.07Z" transform="translate(-28.41 -90.93)"/><path class="cls-16" d="M2526.08,1111.65s65.18,38.18,96.74,129.7c-28.35,31.42-54.69,5.54-54.69,5.54l-60.69-60s-18.56-22.8-9.69-50.65C2505.49,1112,2526.08,1111.65,2526.08,1111.65Z" transform="translate(-28.41 -90.93)"/><path id="c-7" data-name="c" class="cls-3" d="M2348.35,1350.27a5.42,5.42,0,0,1,1.51-.69c-.06-.08-.12-.15-.17-.23-3.24-4.69-3.12-10.38.25-12.69a5.49,5.49,0,0,1,1.8-.8c-.94-3.5-.21-6.87,2.2-8.52a5.72,5.72,0,0,1,3.25-1c-1.17-3.44-.35-7.08,2.34-8.93,3.37-2.32,8.34-1,11.1,3.06s2.26,9.14-1.11,11.45a6.33,6.33,0,0,1-2.81,1.07c2.35,4.38,2,9.23-1.07,11.32a5.45,5.45,0,0,1-1.81.8c1,3.5.21,6.87-2.19,8.52a5.71,5.71,0,0,1-3,1c1.18,3,.52,6.27-1.85,7.9-2.85,2-7,.8-9.37-2.59S2345.51,1352.22,2348.35,1350.27Z" transform="translate(-28.41 -90.93)"/><path class="cls-3" d="M2064.38,1918.71l-26.13,12.14L2025,1903.2l-38-248.26c6.56-83,70.15-259.7,70.15-259.7L2130.62,1502l-83.36,168C2080,1703.48,2060.19,1806.62,2064.38,1918.71Z" transform="translate(-28.41 -90.93)"/><path class="cls-3" d="M2100.25,1401.09c.66-5.13,82.6-12.46,82.6-12.46,15.51,64.76,16.74,169.47,4.5,241,17.92,61.88,9.31,207.32-.66,281.51l-43.19-.11c-2.83-40.08-.72-171.28-36.07-281.4C2100.44,1588.23,2097.41,1428.67,2100.25,1401.09Z" transform="translate(-28.41 -90.93)"/><path class="cls-8" d="M2041.8,1919.94c-5.36-15.06-16.81-16.74-16.81-16.74-22.26,31.8-76.94,12.29-75.13,55.31,83.14-.55,117.7,0,117.7,0-.11-9.88-1.75-33.34-3.67-42.52l-4.33.83Z" transform="translate(-28.41 -90.93)"/><path class="cls-11" d="M1956.4,1957.32H2061a6.58,6.58,0,0,1,6.58,6.58V1970a0,0,0,0,1,0,0H1949.82a0,0,0,0,1,0,0v-6.08A6.59,6.59,0,0,1,1956.4,1957.32Z" transform="translate(3988.97 3836.38) rotate(180)"/><path class="cls-8" d="M2133.21,1958.93s6.68-26.68,7.27-30.1c.66-3.9,2.63-13.11,3-17.83.1-1.16,11.57-8.67,20.32-8.66,11.85,0,22.65,7.38,22.87,8.77,1.4,8.9,1.44,19.36,3.71,28,1.68,6.45,6.26,21.47,6.26,21.47Z" transform="translate(-28.41 -90.93)"/><path class="cls-11" d="M2133.21,1956.85c1.56,5.3,20.75-.81,34.76-.81,11.75,0,27,4.89,28.7,3,2.93,5.56.51,17.09.51,17.09s-12.25.67-26.94,0-31.68.32-38.08-1.71C2128.12,1967.18,2133.21,1956.85,2133.21,1956.85Z" transform="translate(-28.41 -90.93)"/><path d="M1998.11,966.78c-2.69-36.62,7.89-69,37.1-85.45,29.59-16.7,66.67-.32,66.67-.32h0s31.38-11.17,59.82,20.16,6.93,58.9,18.57,81.75c6.89,13.53,41.92,16.32,32.87,60.4-2.61,12.71-17.89,21.26-30.84,22.11-22.75,1.5-43.94-7.3-53.16,1.5-30.39,29-97.73,18.5-107.16-8-2.92-8.22-63.5,7.68-57.45-48.3C1967.59,982.25,2000.51,999.51,1998.11,966.78Z" transform="translate(-28.41 -90.93)"/><path class="cls-3" d="M2065.77,1045.89l39.05-5.85-3.11,36.25s-11.56,33.87-34.6,34.52-14.48-26.51-14.48-26.51Z" transform="translate(-28.41 -90.93)"/><path class="cls-12" d="M1994.7,1270.84c0-30.61-26.53-76.48-13.81-107.38,9.26-24.87,24.74-66.6,43.69-73.56,8.94-3.29,17.93-5.52,29.07-8.6,0,0-3.26,20.31,9.84,21.36,25.21,2,38.57-30.41,38.57-30.41,13.59-1.3,75.37,19,78.29,29-.15,40.1-35.21,94.07-45.87,137.43-4.19,46.83,5.82,71.83,5.87,77.15,0,0-88.52,29.59-148-3.15C1992.37,1312.65,1994.7,1291.52,1994.7,1270.84Z" transform="translate(-28.41 -90.93)"/><path class="cls-3" d="M2137.85,993.44c-8,42.55-41.57,72-75,65.67s-54-45.87-46-88.42,41.57-72,75-65.67S2145.84,950.89,2137.85,993.44Z" transform="translate(-28.41 -90.93)"/><path d="M2102.11,976.3a2.18,2.18,0,0,1-1.25-.78c-4.77-5.95-13.51-5.18-13.6-5.17a2.23,2.23,0,0,1-.44-4.43c.45,0,11.21-1,17.51,6.82a2.22,2.22,0,0,1-.34,3.13A2.19,2.19,0,0,1,2102.11,976.3Z" transform="translate(-28.41 -90.93)"/><path d="M2030.24,975.68a2.51,2.51,0,0,1-.66-.32,2.24,2.24,0,0,1-.52-3.11,15.63,15.63,0,0,1,14.64-6.39,2.23,2.23,0,0,1-.7,4.4,11.16,11.16,0,0,0-10.31,4.58A2.25,2.25,0,0,1,2030.24,975.68Z" transform="translate(-28.41 -90.93)"/><path class="cls-4" d="M2057.42,993.49c-2.62,3-4.85,6.17-7.49,7.92a2.05,2.05,0,0,0-.36,2.89c2.83,4.2,10,7.78,14.38,9.66.64.28,1-.51.49-1-4.64-3.8-6.78-6.57-7.72-8.09a2.67,2.67,0,0,1-.29-2.36c.65-1.68,1.92-5.12,2.72-8C2059.43,993.59,2058.06,992.74,2057.42,993.49Z" transform="translate(-28.41 -90.93)"/><path class="cls-11" d="M2085.93,1026.09a1.78,1.78,0,0,0-1.85-2.69,151,151,0,0,1-16.57,2.44,149,149,0,0,1-16.75.21,1.78,1.78,0,0,0-1.4,3c3.17,3.63,9.54,9,19.06,8.24S2083.38,1030.17,2085.93,1026.09Z" transform="translate(-28.41 -90.93)"/><path d="M2084.83,983.24a6.88,6.88,0,1,0,6.88-6.88A6.88,6.88,0,0,0,2084.83,983.24Z" transform="translate(-28.41 -90.93)"/><path d="M2034,983.24a6.89,6.89,0,1,0,6.88-6.88A6.88,6.88,0,0,0,2034,983.24Z" transform="translate(-28.41 -90.93)"/><path d="M2052.8,903.19h0c15-14.3,42.09-20.57,59.79-12.78,23.5,10.34,47.6,58.43,32.43,90.42-31.09-2.62-72.89-26.17-92.2-46.05A191.62,191.62,0,0,1,2016.68,960C2014.62,944.84,2045.84,906.19,2052.8,903.19Z" transform="translate(-28.41 -90.93)"/><path class="cls-3" d="M2128.57,976.26c-7.72,6.64-9.57,17.14-4.14,23.46s16.1,6,23.82-.58,9.56-17.15,4.13-23.46S2136.29,969.62,2128.57,976.26Z" transform="translate(-28.41 -90.93)"/><path class="cls-4" d="M2134.19,997.33a2.23,2.23,0,0,1-.82-.62c-3.28-3.94-3.8-8.54-1.38-12.28a10.72,10.72,0,0,1,11.54-4.61,2.23,2.23,0,1,1-1.19,4.29,6.36,6.36,0,0,0-6.61,2.73c-1.35,2.09-1,4.58,1.06,7a2.22,2.22,0,0,1-2.6,3.46Z" transform="translate(-28.41 -90.93)"/><path class="cls-12" d="M2229.26,1605.78c-44.86-55.41-12-251.88-93.25-311.8l-139.6,11.36c-46.59,60.39-14.29,189.63-52.57,312.76C2009.57,1641.56,2111.44,1642.63,2229.26,1605.78Z" transform="translate(-28.41 -90.93)"/><g id="c-8" data-name="c"><path class="cls-3" d="M2171.94,1312.37l-8.2,3.28s-8.55-13.59-17.22-13.16l4.32,13s-4.9,15.18-31.16,13.44c-22.43,5.1-6.74,15.75-12.95,20-9.16,6.29,16.53,21.72,38.19,15.06,28-8.61,46.21-35.07,46.21-35.07Z" transform="translate(-28.41 -90.93)"/></g><path class="cls-3" d="M2171.94,1312.37l47.92-70.19s11.32-26.93,53.82-11.67c2.06,22.84-14.48,55.39-90.29,105.53A167.13,167.13,0,0,0,2171.94,1312.37Z" transform="translate(-28.41 -90.93)"/><path class="cls-3" d="M2171.94,1094.09s68.55,40.16,101.74,136.42c-29.81,33-57.51,5.83-57.51,5.83l-63.83-63.07s-19.53-24-10.19-53.28C2150.28,1094.47,2171.94,1094.09,2171.94,1094.09Z" transform="translate(-28.41 -90.93)"/><path class="cls-11" d="M2048,1089.28a6.5,6.5,0,1,1-6.5-6.5A6.5,6.5,0,0,1,2048,1089.28Z" transform="translate(-28.41 -90.93)"/><path class="cls-11" d="M2048,1102.28a6.5,6.5,0,1,1-6.5-6.5A6.5,6.5,0,0,1,2048,1102.28Z" transform="translate(-28.41 -90.93)"/><path class="cls-11" d="M2050.06,1114.13a6.5,6.5,0,1,1-6.5-6.5A6.5,6.5,0,0,1,2050.06,1114.13Z" transform="translate(-28.41 -90.93)"/><path class="cls-11" d="M2057.58,1123.46a6.51,6.51,0,1,1-6.51-6.5A6.5,6.5,0,0,1,2057.58,1123.46Z" transform="translate(-28.41 -90.93)"/><path class="cls-11" d="M2069.92,1127.13a6.5,6.5,0,1,1-6.5-6.5A6.5,6.5,0,0,1,2069.92,1127.13Z" transform="translate(-28.41 -90.93)"/><path class="cls-11" d="M2082.05,1123.46a6.5,6.5,0,1,1-6.5-6.5A6.5,6.5,0,0,1,2082.05,1123.46Z" transform="translate(-28.41 -90.93)"/><path class="cls-11" d="M2092.71,1117a6.5,6.5,0,1,1-6.5-6.5A6.5,6.5,0,0,1,2092.71,1117Z" transform="translate(-28.41 -90.93)"/><path class="cls-11" d="M2101.28,1108.78a6.5,6.5,0,1,1-6.5-6.5A6.5,6.5,0,0,1,2101.28,1108.78Z" transform="translate(-28.41 -90.93)"/><path class="cls-11" d="M2110.14,1100.59a6.5,6.5,0,1,1-6.5-6.5A6.5,6.5,0,0,1,2110.14,1100.59Z" transform="translate(-28.41 -90.93)"/><path class="cls-11" d="M2116.65,1090.8a6.51,6.51,0,1,1-6.51-6.5A6.51,6.51,0,0,1,2116.65,1090.8Z" transform="translate(-28.41 -90.93)"/><circle class="cls-11" cx="2085.94" cy="989.13" r="6.5"/><path class="cls-17" d="M1033.93,1830.24l38.91,124c1,3.31,2.77,5.29,4.62,5.29h0c3.43,0,6-6.62,5.51-13.93l-8.47-115.41Z" transform="translate(-28.41 -90.93)"/><path class="cls-17" d="M675.13,1830.24l-38.91,124c-1,3.31-2.76,5.29-4.62,5.29h0c-3.43,0-6-6.62-5.51-13.93l8.47-115.41Z" transform="translate(-28.41 -90.93)"/><path class="cls-17" d="M490.08,1830.24l-38.91,124c-1,3.31-2.77,5.29-4.62,5.29h0c-3.43,0-6.05-6.62-5.51-13.93l8.47-115.41Z" transform="translate(-28.41 -90.93)"/><path class="cls-18" d="M684.62,1444.86h359a33.89,33.89,0,0,1,33.89,33.89v221.54a43.58,43.58,0,0,1-43.58,43.58H684.62a0,0,0,0,1,0,0v-299a0,0,0,0,1,0,0Z"/><path class="cls-17" d="M597.62,1444.86h359a33.89,33.89,0,0,1,33.89,33.89v221.54a43.58,43.58,0,0,1-43.58,43.58H597.62a0,0,0,0,1,0,0v-299a0,0,0,0,1,0,0Z"/><path class="cls-18" d="M521.61,1276.61H779.81a31.47,31.47,0,0,1,31.47,31.47v212.4a0,0,0,0,1,0,0H521.61a0,0,0,0,1,0,0V1276.61A0,0,0,0,1,521.61,1276.61Z"/><path class="cls-19" d="M490.43,1515.37H951.5a39.73,39.73,0,0,1,39.73,39.73v45.82a0,0,0,0,1,0,0H490.43a0,0,0,0,1,0,0v-85.56A0,0,0,0,1,490.43,1515.37Z"/><rect class="cls-18" x="490.43" y="1590.98" width="500.8" height="153.11"/><path class="cls-17" d="M453.38,1276.61h68.23a0,0,0,0,1,0,0v243.88a0,0,0,0,1,0,0H420.86a0,0,0,0,1,0,0V1309.14a32.53,32.53,0,0,1,32.53-32.53Z"/><path class="cls-5" d="M755.21,1100.41A48.45,48.45,0,1,1,706.76,1052,48.45,48.45,0,0,1,755.21,1100.41Z" transform="translate(-28.41 -90.93)"/><path class="cls-10" d="M830.14,1236.9C853,1214.79,877,1122,813.54,1094c-60-26.53-135.7,10.56-138.59,74.27s45.78,94.63,45.78,94.63Z" transform="translate(-28.41 -90.93)"/><path class="cls-3" d="M1107.05,1792.85l19.12,26.74s17.08,21.76,37.44,11.55,11.33-42.92,11.33-42.92l-23.39-30.79Z" transform="translate(-28.41 -90.93)"/><path class="cls-10" d="M1174.14,1784.68a153.52,153.52,0,0,0,42.89-7.8c12.5-4.26,45.15-16.65,52.49,5.7,1.09,3.33.58,8-5.55,15.11-9,10.49-22.87,22-55.28,32.07-38.88,12-42,18.93-56.86,22.6-15.4,3.81-20.49-17.66-26.44-35.11h0c2.72,3.69,10.81,12.75,39.72,7.46C1173.75,1823.14,1149.11,1796,1174.14,1784.68Z" transform="translate(-28.41 -90.93)"/><path class="cls-3" d="M945.12,1884.79v18.14s1.24,27.64,23.74,31.16,34.18-28.32,34.18-28.32l-.83-28.57Z" transform="translate(-28.41 -90.93)"/><path class="cls-9" d="M858.91,1433c-11-.09-33.47,40.16-31.56,43.49C854,1506,957.9,1509,957.9,1509l12.49-12.8S908.62,1467.89,858.91,1433Z" transform="translate(-28.41 -90.93)"/><path class="cls-9" d="M760.34,1340.8c10.1,30.4,56,132,67,135.69L858.91,1433s-47.78-106.63-56-122.53C788.67,1282.91,743.74,1291.19,760.34,1340.8Z" transform="translate(-28.41 -90.93)"/><path class="cls-3" d="M763.17,1241s4.38,39.26,6.21,53.69l-51.26,13c-6.59-44-7.09-99.32-7.09-99.32Z" transform="translate(-28.41 -90.93)"/><path class="cls-3" d="M709.33,1183.83c-2.53,47.15,25.44,87,62.46,89s69.1-34.62,71.63-81.77-25.44-87-62.46-89S711.86,1136.69,709.33,1183.83Z" transform="translate(-28.41 -90.93)"/><path d="M823.79,1197.78a6.45,6.45,0,1,0,5.24-7.46A6.44,6.44,0,0,0,823.79,1197.78Z" transform="translate(-28.41 -90.93)"/><path d="M771.67,1195.34a7,7,0,1,0,5.67-8.08A7,7,0,0,0,771.67,1195.34Z" transform="translate(-28.41 -90.93)"/><path class="cls-10" d="M765.92,1187.61a2.48,2.48,0,0,0,1.4-.79c5.5-6.24,15-5,15.08-5a2.43,2.43,0,0,0,.71-4.8c-.49-.07-12.16-1.71-19.43,6.54a2.43,2.43,0,0,0,.21,3.43A2.47,2.47,0,0,0,765.92,1187.61Z" transform="translate(-28.41 -90.93)"/><path class="cls-10" d="M839.93,1192.82a2.31,2.31,0,0,0,.75-.26,2.43,2.43,0,0,0,1-3.3,17,17,0,0,0-15-8.79,2.43,2.43,0,0,0,.2,4.85,12.17,12.17,0,0,1,10.58,6.28A2.42,2.42,0,0,0,839.93,1192.82Z" transform="translate(-28.41 -90.93)"/><path class="cls-4" d="M815.82,1210c2.35,4.5,4.26,9,6.89,12a2.56,2.56,0,0,1-.16,3.51c-4,3.86-12.76,5.41-18,6a.68.68,0,0,1-.36-1.3c6-2.74,8.9-5.19,10.25-6.61a3,3,0,0,0,.77-2.65c-.4-2.21-1.17-6.68-1.51-10.3A1.15,1.15,0,0,1,815.82,1210Z" transform="translate(-28.41 -90.93)"/><path class="cls-4" d="M785.27,1252.35c-16.82-5-20.75-17.53-20.95-18.2a2.68,2.68,0,0,1,5.14-1.53c.22.71,5.47,16.65,31.65,16.39a2.68,2.68,0,0,1,0,5.36A53.41,53.41,0,0,1,785.27,1252.35Z" transform="translate(-28.41 -90.93)"/><path class="cls-10" d="M704.08,1183.68c42.9,6.73,118.67-22.16,129.81-42.33-.28-28.29-38.94-53.94-66.51-49.06S696.29,1145.88,704.08,1183.68Z" transform="translate(-28.41 -90.93)"/><path class="cls-3" d="M725.88,1180.65c6.46,9,5.71,20.63-1.68,25.92s-18.62,2.25-25.08-6.78-5.7-20.63,1.69-25.92S719.42,1171.62,725.88,1180.65Z" transform="translate(-28.41 -90.93)"/><path class="cls-4" d="M714.48,1201.51a2.46,2.46,0,0,0,1-.44c4.5-3.33,6.23-8.06,4.64-12.66a11.68,11.68,0,0,0-11-7.86,2.43,2.43,0,1,0,.14,4.85,6.93,6.93,0,0,1,6.3,4.61c.89,2.55-.16,5.1-2.94,7.16a2.42,2.42,0,0,0,1.86,4.34Z" transform="translate(-28.41 -90.93)"/><path class="cls-12" d="M782.51,1623.74l218.39-9.33s10.78-54.51,2.67-76.12-208.76-17.16-208.76-17.16Z" transform="translate(-28.41 -90.93)"/><path class="cls-20" d="M718.28,1483.78c-5.92,13.68-29,54.38-26.75,87.38,2.3,34,26.32,63.7,67,63.06,0,0,76.65-43.57,60.06-132.82C818.58,1501.4,778.45,1485.73,718.28,1483.78Z" transform="translate(-28.41 -90.93)"/><path class="cls-20" d="M752.46,1642l192.38,18.15s66-27.85,65.61-51.5-194.21-88.36-194.21-88.36C702.56,1487.13,664.66,1628.23,752.46,1642Z" transform="translate(-28.41 -90.93)"/><path class="cls-20" d="M1010.45,1608.64,1006.59,1880s-48,20.24-64.85.16c-7.94-92.1-45.76-173.68-3.54-229.83C994.75,1575.13,1010.45,1608.64,1010.45,1608.64Z" transform="translate(-28.41 -90.93)"/><path class="cls-12" d="M1003.11,1537.65,1163.2,1757.5s-35.74,47.75-60.68,42.16c-43-54.47-130.15-118.33-130.7-186.87C971.07,1521,1003.11,1537.65,1003.11,1537.65Z" transform="translate(-28.41 -90.93)"/><path class="cls-8" d="M715.89,1290.56l53.88-.6c24.72,28.75,49.83,53.45,54.27,73.09,5.84,25.86,4.75,165.52,4.75,165.52-45.33,16.6-96,1.82-129-10.45,8.29-68.74-46.91-146-14.8-198.31C693,1306.76,703.67,1300.55,715.89,1290.56Z" transform="translate(-28.41 -90.93)"/><path class="cls-10" d="M1004.45,1902.43a153.3,153.3,0,0,0,39.43,18.6c12.64,3.8,46.41,12.72,39.37,35.16-1,3.35-4.18,6.85-13.29,9.06-13.47,3.27-31.43,4.63-63.63-6-38.63-12.82-45.18-9-59.4-14.69-14.73-5.86-6.39-26.28-1.09-43.94h0c.07,4.58,1.38,16.66,28,29.17C981.76,1933.48,977.5,1897.08,1004.45,1902.43Z" transform="translate(-28.41 -90.93)"/><path class="cls-10" d="M822.53,1540H997.05l34.45-109.53a7.86,7.86,0,0,0-7.49-10.21H866a7.84,7.84,0,0,0-7.49,5.5Z" transform="translate(-28.41 -90.93)"/><path class="cls-13" d="M835.76,1540h167a10.23,10.23,0,0,0,9.75-7.15l32.2-102.38a7.86,7.86,0,0,0-7.49-10.21H879.19a7.83,7.83,0,0,0-7.49,5.5Z" transform="translate(-28.41 -90.93)"/><path class="cls-21" d="M938.51,1482.3c-1.92,6.76,1.5,13.66,7.64,15.41s12.69-2.32,14.61-9.09-1.5-13.67-7.64-15.41S940.43,1475.53,938.51,1482.3Z" transform="translate(-28.41 -90.93)"/><path class="cls-10" d="M729.32,1523.79H835.76a0,0,0,0,1,0,0v3.56a12.38,12.38,0,0,1-12.38,12.38H729.32a0,0,0,0,1,0,0v-15.95A0,0,0,0,1,729.32,1523.79Z" transform="translate(1536.68 2972.59) rotate(-180)"/><path class="cls-3" d="M815.44,1531.79c-12.5-.1-28.91,2.27-28.52-4.2s6.82-8.85,7.6-16.63c.69-6.89-22.48-5.12-37.13,17.65l-4.31-2.39-12.4,21.1,7.84,2.9c13.25,15.93,53.18,24.07,76.66,11.64C849,1549.28,827.93,1531.9,815.44,1531.79Z" transform="translate(-28.41 -90.93)"/><path class="cls-9" d="M666,1327.79c-15.39,33.84-72.09,110.7-59.72,153.23,8.65,29.77,136.92,73.35,136.92,73.35l12.19-31.06L666.29,1457s52-101.44,57.42-120.62C733.16,1302.82,690.24,1274.57,666,1327.79Z" transform="translate(-28.41 -90.93)"/><path class="cls-8" d="M712.5,1271.09l1.25,21.19h56v-16.93S732.27,1273.82,712.5,1271.09Z" transform="translate(-28.41 -90.93)"/><path class="cls-18" d="M507.86,1444.86H726a33.89,33.89,0,0,1,33.89,33.89v221.54a43.58,43.58,0,0,1-43.58,43.58H507.86a0,0,0,0,1,0,0v-299A0,0,0,0,1,507.86,1444.86Z"/><path class="cls-17" d="M420.86,1444.86H639a33.89,33.89,0,0,1,33.89,33.89v221.54a43.58,43.58,0,0,1-43.58,43.58H420.86a0,0,0,0,1,0,0v-299A0,0,0,0,1,420.86,1444.86Z"/><path class="cls-20" d="M231,1884.24c-16.5,69.26-75.45,31.16-63.12,74.94a7.86,7.86,0,0,0,7.33,5.51l34.61,1.32a15.61,15.61,0,0,0,9.39-2.71c18.26-12.51,30.66-30.12,70.1-32.26-.3-16.84.46-40.88-5.1-49.48Z" transform="translate(-28.41 -90.93)"/><path class="cls-5" d="M322.24,1398.24s-100.67,153.55-114.57,201.31,15.17,128.69,9.91,291.79c31.47,8.17,73.42,1.15,73.42,1.15s25.25-204.58-4.45-252.89c44.5-67.91,156.29-216.15,156.29-216.15Z" transform="translate(-28.41 -90.93)"/><path class="cls-20" d="M378.07,1906.56c-25.62,34.87-89.56,14.25-87,61,96.91-1.54,137.2-1.33,137.2-1.33-.23-10.75-2.4-36.26-4.73-46.23Z" transform="translate(-28.41 -90.93)"/><path class="cls-10" d="M348,1367.2s-32.1,250.51-24.69,299.7,30.37,87.68,31.18,250.87c31.74,7,80.26,13.27,80.26,13.27s20.46-196.81-21.62-251c11.92-80.31,68.75-282.31,68.75-282.31Z" transform="translate(-28.41 -90.93)"/><path class="cls-9" d="M183.58,1256.93,144.45,1213a4.61,4.61,0,0,0-3.34-1.52l-32.22-.19c-.92,0-3.76,5.08-3.15,5.76l27.61,24.53a1.12,1.12,0,0,0,.47.3l47.34,17.56C182.18,1259.79,184.29,1257.71,183.58,1256.93Z" transform="translate(-28.41 -90.93)"/><path class="cls-8" d="M180.59,1259.87l-37.28-41.38A4.59,4.59,0,0,0,140,1217l-33.22-.59a1,1,0,0,0-.79,1.75l26.25,28.94a1,1,0,0,0,.47.3l46.83,14.2A1,1,0,0,0,180.59,1259.87Z" transform="translate(-28.41 -90.93)"/><path class="cls-3" d="M254.26,1297.61l-27-13.22s-26.6-26.92-30.55-32.94c-5.92-3-17.11-10.53-19.63-10.82a42.18,42.18,0,0,0-7.67.49l12.48,14.2s-5.93,1.18-13.49-3.62S147.51,1234,141,1236.5l-2.33,2.06s-4.13-4.42-8-2.78,3.85,21.07,25.84,41.67c1.45,5.5,8.7,15.13,8.7,15.13l44.46,15.62Z" transform="translate(-28.41 -90.93)"/><path class="cls-9" d="M137.23,1224.73c1.58,1.58,3.85,1.87,5.07.65s.94-3.49-.64-5.07-3.85-1.87-5.07-.65S135.65,1223.15,137.23,1224.73Z" transform="translate(-28.41 -90.93)"/><path class="cls-3" d="M379.82,1099.32c-8,10.37,54.67,21.65,63.07.1s-6-80.83-6-80.83l-57.13,12.13S390.24,1085.83,379.82,1099.32Z" transform="translate(-28.41 -90.93)"/><path class="cls-3" d="M449.36,970.21c4.81,45.84-20.48,86.07-56.48,89.85s-69.09-30.33-73.9-76.17,20.47-86.07,56.48-89.84S444.55,924.37,449.36,970.21Z" transform="translate(-28.41 -90.93)"/><path d="M340.25,997.39a6.83,6.83,0,1,1-4.12-8.73A6.83,6.83,0,0,1,340.25,997.39Z" transform="translate(-28.41 -90.93)"/><path d="M385,987.61a7.38,7.38,0,1,1-4.45-9.44A7.38,7.38,0,0,1,385,987.61Z" transform="translate(-28.41 -90.93)"/><path class="cls-4" d="M353.28,996c-1.45,10.74-3.46,24-3.46,24s7.06,7.44,18.77,2.3c-5.86.19-12.23-.92-13.2-8.41S353.28,996,353.28,996Z" transform="translate(-28.41 -90.93)"/><path class="cls-5" d="M338.24,981.81a2.62,2.62,0,0,1-2.59.06,7.55,7.55,0,0,0-5.59-.48c-1.87.72-3.38,2.56-4.46,5.48a2.62,2.62,0,0,1-4.91-1.82c1.65-4.43,4.19-7.32,7.58-8.58,5-1.85,9.68.69,9.88.8a2.62,2.62,0,0,1,.09,4.54Z" transform="translate(-28.41 -90.93)"/><path class="cls-5" d="M372.29,974.35a2.6,2.6,0,0,0,2.46-.8,7.66,7.66,0,0,1,5.12-2.29c2,.06,4,1.31,6,3.71a2.62,2.62,0,1,0,4-3.34c-3-3.64-6.37-5.52-10-5.6-5.28-.12-8.92,3.83-9.07,4a2.61,2.61,0,0,0,.19,3.7A2.59,2.59,0,0,0,372.29,974.35Z" transform="translate(-28.41 -90.93)"/><path class="cls-5" d="M436,999.33c-23.72-19.86-17.17-50.2-17.17-50.2-11.51.75-14.73,5.67-14.73,5.67-9.25-10.62-7-20.62-7-20.62-24.92-2.72-32.22,14.92-51.25,25.32-26.06,14.25-63.48,12.4-75.87-20.75a6,6,0,0,1,7.62-7.8,26.54,26.54,0,0,0,16.38.34,28.35,28.35,0,0,1-10.37-14,6,6,0,0,1,8.37-7.11c7.1,3.27,19.08,4.93,37.28-3.83,12.11-5.82,35.81-34.12,55.07-35,15.75-.75,31,8.73,40.92,25.48,0,0,37.57-6.06,52.08,33.18,14.24,38.56-39.16,98.11-39.16,98.11S442.24,1005.43,436,999.33Z" transform="translate(-28.41 -90.93)"/><path class="cls-11" d="M356.18,1039.76a2,2,0,0,1,.6-3.64,168.69,168.69,0,0,0,18.13-5.45,170.62,170.62,0,0,0,17.25-7.81,2,2,0,0,1,2.85,2.34c-1.5,5.23-5.44,13.79-15.55,17.58S360.75,1042.71,356.18,1039.76Z" transform="translate(-28.41 -90.93)"/><path class="cls-3" d="M419.09,972.32c-7.72,7.61-8.92,18.9-2.69,25.22s17.53,5.26,25.25-2.35,8.92-18.91,2.69-25.22S426.8,964.71,419.09,972.32Z" transform="translate(-28.41 -90.93)"/><path class="cls-4" d="M426.58,994.29a2.41,2.41,0,0,1-.91-.6c-3.77-4-4.65-8.79-2.36-12.94A11.39,11.39,0,0,1,435.23,975a2.37,2.37,0,1,1-.94,4.64,6.76,6.76,0,0,0-6.83,3.38c-1.28,2.31-.7,4.93,1.64,7.38a2.37,2.37,0,0,1-2.52,3.87Z" transform="translate(-28.41 -90.93)"/><path class="cls-12" d="M310.18,1416.63c44.69,9.13,125.05,24.87,167.55,8.3,16.08-23.09,20.16-153.66,20.16-153.66,4.65-134.41-11.47-154.35-47.81-199.38-15.26,7-53.44,13-70.22,13.11,0,0-38,52.81-45.45,91.15-7.53,38.88-8.38,108-9.08,147.61C324.56,1367.73,315.87,1388.94,310.18,1416.63Z" transform="translate(-28.41 -90.93)"/><path class="cls-20" d="M455.37,1112.69c26.15,50.89,20.23,107.25-55.79,218.21-53.24-4.64-63.68-49-63.68-49s14.63-55.09,33.63-124.39S443.93,1090.42,455.37,1112.69Z" transform="translate(-28.41 -90.93)"/><path class="cls-20" d="M223,1271.27l114,9.09s48.89-8.92,62.64,50.54c-24.47,19-87.63,26.2-191.22-12.26C219.33,1303.72,223,1271.27,223,1271.27Z" transform="translate(-28.41 -90.93)"/><polygon class="cls-11" points="351.8 990.3 350.71 1020.96 427.83 988.62 418.5 963.82 351.8 990.3"/><path class="cls-11" d="M1569.21,1589.92c-8.52,0-17.12-.23-25.57-.69a7,7,0,1,1,.76-14c9.76.53,19.69.75,29.55.65h.07a7,7,0,0,1,.07,14Zm34.78-1.29a7,7,0,0,1-.52-14c10-.75,19.82-1.83,29.35-3.21a7,7,0,0,1,2,13.86c-9.85,1.42-20,2.54-30.31,3.31Zm375.93-1.8h-.26a104.88,104.88,0,0,1-31.48-5.85,7,7,0,0,1,4.7-13.19,90.94,90.94,0,0,0,27.29,5,7,7,0,0,1-.25,14Zm-465.77-.23a8.46,8.46,0,0,1-.87,0c-10.37-1.29-20.51-2.94-30.16-4.92a7,7,0,1,1,2.82-13.71c9.28,1.9,19.06,3.49,29.06,4.73a7,7,0,0,1-.85,13.95Zm495.52-2.84A7,7,0,0,1,2008,1570a79.78,79.78,0,0,0,25.19-10.88,7,7,0,1,1,7.81,11.62,93.7,93.7,0,0,1-29.6,12.84A7.21,7.21,0,0,1,2009.67,1583.76Zm-346.35-3.83a7,7,0,0,1-1.54-13.83c9.9-2.24,19.41-4.87,28.26-7.8a7,7,0,0,1,4.4,13.28c-9.28,3.08-19.23,5.83-29.57,8.17A6.9,6.9,0,0,1,1663.32,1579.93Zm-207.86-5.55a7.14,7.14,0,0,1-2.07-.32,225.71,225.71,0,0,1-28.9-11.06,7,7,0,1,1,5.94-12.67,213.45,213.45,0,0,0,27.11,10.36,7,7,0,0,1-2.08,13.69ZM1925,1566a7,7,0,0,1-4.87-2,60.9,60.9,0,0,1-16.89-28.79,7,7,0,1,1,13.54-3.53,47,47,0,0,0,13.08,22.25,7,7,0,0,1-4.86,12Zm-205-5.24a7,7,0,0,1-3-13.31,153.2,153.2,0,0,0,24.62-14.64,7,7,0,0,1,8.33,11.25,167.05,167.05,0,0,1-26.87,16A7,7,0,0,1,1720.08,1560.79Zm337.09-10.72a7,7,0,0,1-6.2-10.24,47.92,47.92,0,0,0,5.34-22.48c0-1,0-1.94-.08-2.91a7,7,0,1,1,14-.71c.06,1.21.1,2.43.1,3.62a61.91,61.91,0,0,1-6.93,29A7,7,0,0,1,2057.17,1550.07Zm-655.43-1.74a7,7,0,0,1-4.26-1.46c-2.49-1.91-4.86-3.91-7-5.92-5-4.58-10.49-9.78-15.71-14.71a7,7,0,0,1,9.61-10.18c5.19,4.9,10.67,10.07,15.58,14.59,1.89,1.74,3.94,3.47,6.11,5.13a7,7,0,0,1-4.28,12.55Zm365.45-23.72a7,7,0,0,1-5.6-11.2c.51-.67,1-1.35,1.47-2a132.66,132.66,0,0,1,19-21.55,7,7,0,0,1,9.5,10.29,118.12,118.12,0,0,0-17,19.25c-.57.81-1.15,1.62-1.75,2.43A7,7,0,0,1,1767.19,1524.61Zm142.25-13.89a6.12,6.12,0,0,1-.74,0,7,7,0,0,1-6.24-7.69,178.17,178.17,0,0,1,5.91-30.56,7,7,0,0,1,13.45,3.87,164.1,164.1,0,0,0-5.43,28.15A7,7,0,0,1,1909.44,1510.72Zm-551.8-3.14a7,7,0,0,1-4.76-1.87c-8-7.41-15.18-14-22.08-20.14a7,7,0,1,1,9.31-10.45c7,6.21,14.27,12.86,22.3,20.34a7,7,0,0,1-4.77,12.12Zm698.23-15.37a7,7,0,0,1-6.31-4,63.86,63.86,0,0,0-16.52-21.13,7,7,0,1,1,9-10.7,77.8,77.8,0,0,1,20.09,25.76,7,7,0,0,1-6.3,10Zm-245.3-8.48a7,7,0,0,1-3.81-12.88,233.48,233.48,0,0,1,27.08-14.93,7,7,0,0,1,6,12.66,221.31,221.31,0,0,0-25.45,14A6.93,6.93,0,0,1,1810.57,1483.73Zm-497.83-16a6.94,6.94,0,0,1-4.49-1.63c-7.85-6.56-15.64-12.83-23.17-18.64a7,7,0,0,1,8.54-11.09c7.68,5.92,15.62,12.31,23.61,19a7,7,0,0,1-4.49,12.37Zm551.91-9.65a7,7,0,0,1-2.25-13.63,295.39,295.39,0,0,1,29.59-8.33,7,7,0,0,1,3.08,13.66,277.75,277.75,0,0,0-28.17,7.93A7.12,7.12,0,0,1,1864.65,1458.06Zm147.15-4.42a7.06,7.06,0,0,1-2.6-.5,132,132,0,0,0-27.43-7.45,7,7,0,0,1,2.29-13.81,146.54,146.54,0,0,1,30.34,8.26,7,7,0,0,1-2.6,13.5Zm-85.81-.11a7.14,7.14,0,0,1-3.15-.75,36.94,36.94,0,0,0-6.7-14.08,7,7,0,0,1,6.17-7.75c1.55-.18,3.11-.34,4.66-.49,2.85-4.63,6-9.15,9.25-13.54a7,7,0,0,1,11.18,8.43q-1.5,2-2.93,4c2.91-.08,5.79-.1,8.64-.08a7,7,0,0,1-.06,14H1953q-8.65-.09-17.63.53c-1.08,1.94-2.12,3.89-3.1,5.85A7,7,0,0,1,1926,1453.53Zm-660.83-22.38a7,7,0,0,1-4-1.25c-8.35-5.8-16.68-11.25-24.78-16.18a7,7,0,1,1,7.28-12c8.34,5.09,16.92,10.68,25.49,16.64a7,7,0,0,1-4,12.75Zm696.58-25.36a7,7,0,0,1-4.85-12,228.9,228.9,0,0,1,23.75-19.79,7,7,0,1,1,8.23,11.32,213.64,213.64,0,0,0-22.28,18.57A7,7,0,0,1,1961.74,1405.79ZM1213.85,1400a6.92,6.92,0,0,1-3.19-.78c-9-4.6-18-8.72-26.69-12.24a7,7,0,0,1,5.24-13c9.12,3.68,18.49,8,27.84,12.78a7,7,0,0,1-3.2,13.23Zm-200.68-6.67a7,7,0,0,1-3.45-13.1,197.26,197.26,0,0,1,28.16-13.14,7,7,0,1,1,4.88,13.12,182.65,182.65,0,0,0-26.15,12.21A6.92,6.92,0,0,1,1013.17,1393.37Zm145-15.56a7.23,7.23,0,0,1-1.89-.26,220.23,220.23,0,0,0-28.42-6,7,7,0,0,1,1.95-13.86,234.51,234.51,0,0,1,30.24,6.38,7,7,0,0,1-1.88,13.75Zm1337.58-3a7,7,0,0,1-6.42-4.2c-2.67-6.13-8.69-12.23-17.9-18.14a7,7,0,1,1,7.56-11.78c11.58,7.43,19.38,15.61,23.17,24.32a7,7,0,0,1-6.41,9.8Zm-1426.61-2.17a7,7,0,0,1-1.28-13.88,184.3,184.3,0,0,1,31-3.09,7,7,0,1,1,.22,14,171.06,171.06,0,0,0-28.63,2.85A6.32,6.32,0,0,1,1069.18,1372.67Zm940.81-2.26a7,7,0,0,1-3.47-13.08c8.59-4.88,17.79-9.53,27.35-13.84a7,7,0,1,1,5.75,12.77c-9.17,4.13-18,8.58-26.18,13.24A7,7,0,0,1,2010,1370.41Zm54.58-24.75a7,7,0,0,1-2.37-13.58c9.29-3.34,19.05-6.48,29-9.33a7,7,0,1,1,3.85,13.46c-9.67,2.77-19.13,5.81-28.12,9A7,7,0,0,1,2064.57,1345.66Zm383.8-5.28a7,7,0,0,1-2.53-.47,273.38,273.38,0,0,0-27.83-9,7,7,0,0,1,3.65-13.52,289.66,289.66,0,0,1,29.25,9.47,7,7,0,0,1-2.54,13.52Zm-326.15-11.29a7,7,0,0,1-1.53-13.83c9.66-2.17,19.69-4.15,29.8-5.87a7,7,0,1,1,2.36,13.8c-9.88,1.68-19.67,3.61-29.09,5.73A6.85,6.85,0,0,1,2122.22,1329.09Zm268.38-4.65a6.83,6.83,0,0,1-1.34-.13c-9.33-1.81-19.17-3.42-29.23-4.78a7,7,0,0,1,1.89-13.88c10.32,1.41,20.41,3.06,30,4.91a7,7,0,0,1-1.32,13.88Zm-209.23-5.51a7,7,0,0,1-.85-14c9.9-1.22,20-2.24,30.16-3a7,7,0,1,1,1.11,14c-9.92.79-19.86,1.79-29.56,3A8.43,8.43,0,0,1,2181.37,1318.93Zm149.79-2.65c-.21,0-.41,0-.62,0-9.71-.84-19.69-1.5-29.64-1.93a7,7,0,0,1,.61-14c10.16.45,20.33,1.11,30.25,2a7,7,0,0,1-.6,14Zm-90-2.12a7,7,0,0,1-.26-14c9.38-.35,18.89-.53,28.28-.53h2a7,7,0,0,1,0,14h-2c-9.21,0-18.55.18-27.75.52Z" transform="translate(-28.41 -90.93)"/><path class="cls-22" d="M1072.13,1172.85H892.07a20.24,20.24,0,0,0-20.25,20.24v101.05a20.25,20.25,0,0,0,20.25,20.25h5.87l20.86,39.31a7.46,7.46,0,0,0,13,.37l24.12-39.68h116.25a20.25,20.25,0,0,0,20.25-20.25V1193.09A20.25,20.25,0,0,0,1072.13,1172.85Z" transform="translate(-28.41 -90.93)"/><path class="cls-22" d="M978.3,1150.23h0a11.84,11.84,0,0,1-11.84-11.84v-36a11.84,11.84,0,0,1,11.84-11.84h0a11.84,11.84,0,0,1,11.84,11.84v36A11.84,11.84,0,0,1,978.3,1150.23Z" transform="translate(-28.41 -90.93)"/><path class="cls-22" d="M1021.21,1146.77h0a11.85,11.85,0,0,1,0-16.75l25.46-25.46a11.84,11.84,0,0,1,16.75,0h0a11.84,11.84,0,0,1,0,16.74L1038,1146.77A11.85,11.85,0,0,1,1021.21,1146.77Z" transform="translate(-28.41 -90.93)"/><path class="cls-22" d="M935.39,1146.77h0a11.85,11.85,0,0,0,0-16.75l-25.47-25.46a11.82,11.82,0,0,0-16.74,0h0a11.82,11.82,0,0,0,0,16.74l25.46,25.47A11.85,11.85,0,0,0,935.39,1146.77Z" transform="translate(-28.41 -90.93)"/><path class="cls-11" d="M1061.2,1164.29H881.14a20.25,20.25,0,0,0-20.25,20.25v101a20.25,20.25,0,0,0,20.25,20.25H887l20.87,39.31a7.45,7.45,0,0,0,13,.37L945,1305.84H1061.2a20.25,20.25,0,0,0,20.25-20.25v-101A20.25,20.25,0,0,0,1061.2,1164.29Z" transform="translate(-28.41 -90.93)"/><path class="cls-9" d="M1045.81,1195.91l0,78.93a5.45,5.45,0,0,1-5.44,5.45l-137.18.09a5.44,5.44,0,0,1-5.44-5.44l0-78.94a5.44,5.44,0,0,1,5.43-5.44l137.18-.09A5.44,5.44,0,0,1,1045.81,1195.91Z" transform="translate(-28.41 -90.93)"/><path class="cls-8" d="M1045.81,1195.91v4.36l-62.47,44.93a17.33,17.33,0,0,1-20.53.19l-65.06-46.89V1196a5.44,5.44,0,0,1,5.44-5.44l137.17-.09A5.44,5.44,0,0,1,1045.81,1195.91Z" transform="translate(-28.41 -90.93)"/><path class="cls-11" d="M970.26,1142.74h0a11.85,11.85,0,0,1-11.85-11.84v-36a11.85,11.85,0,0,1,11.85-11.84h0a11.84,11.84,0,0,1,11.84,11.84v36A11.84,11.84,0,0,1,970.26,1142.74Z" transform="translate(-28.41 -90.93)"/><path class="cls-11" d="M1013.17,1139.27h0a11.82,11.82,0,0,1,0-16.74l25.46-25.47a11.85,11.85,0,0,1,16.75,0h0a11.85,11.85,0,0,1,0,16.75l-25.47,25.46A11.82,11.82,0,0,1,1013.17,1139.27Z" transform="translate(-28.41 -90.93)"/><path class="cls-11" d="M927.34,1139.27h0a11.82,11.82,0,0,0,0-16.74l-25.46-25.47a11.84,11.84,0,0,0-16.74,0h0a11.84,11.84,0,0,0,0,16.75l25.46,25.46A11.82,11.82,0,0,0,927.34,1139.27Z" transform="translate(-28.41 -90.93)"/><rect class="cls-11" x="2458.68" y="317.95" width="243.11" height="134.71" rx="27.01"/><rect class="cls-11" x="2279.38" y="511.08" width="315.62" height="174.88" rx="35.06"/><polygon class="cls-11" points="2497.24 452.66 2497.24 522.69 2540.86 452.66 2497.24 452.66"/><path class="cls-11" d="M2578.71,769.06v65.11a5,5,0,0,1-9.4,2.25l-34.22-67.36Z" transform="translate(-28.41 -90.93)"/><path class="cls-1" d="M2690.83,463.56H2526.45A14.42,14.42,0,0,1,2512,449.14h0a14.41,14.41,0,0,1,14.42-14.42h164.38a14.42,14.42,0,0,1,14.42,14.42h0A14.43,14.43,0,0,1,2690.83,463.56Z" transform="translate(-28.41 -90.93)"/><path class="cls-1" d="M2690.83,510.12H2526.45A14.41,14.41,0,0,1,2512,495.7h0a14.42,14.42,0,0,1,14.42-14.42h164.38a14.43,14.43,0,0,1,14.42,14.42h0A14.42,14.42,0,0,1,2690.83,510.12Z" transform="translate(-28.41 -90.93)"/><path class="cls-1" d="M2582.25,656.67H2351.9a16,16,0,0,1-16-16h0a16,16,0,0,1,16-16h230.35a16,16,0,0,1,16,16h0A16,16,0,0,1,2582.25,656.67Z" transform="translate(-28.41 -90.93)"/><path class="cls-1" d="M2582.25,707.55H2351.9a16,16,0,0,1-16-16h0a16,16,0,0,1,16-16h230.35a16,16,0,0,1,16,16h0A16,16,0,0,1,2582.25,707.55Z" transform="translate(-28.41 -90.93)"/><path class="cls-1" d="M2408.38,635.42H2556.2a13.68,13.68,0,0,1,13.68,13.68v4.71a13.68,13.68,0,0,1-13.68,13.68H2408.38a13.68,13.68,0,0,1-13.68-13.68v-4.71a13.69,13.69,0,0,1,13.69-13.69Z"/><path class="cls-11" d="M499.72,843.77h-.37a7,7,0,0,1-6.63-7.35,144.82,144.82,0,0,1,5.47-31.16,7,7,0,0,1,13.46,3.85,130.29,130.29,0,0,0-4.95,28A7,7,0,0,1,499.72,843.77Zm16.39-57.4a7,7,0,0,1-6.17-10.3,134.65,134.65,0,0,1,18-25.94,7,7,0,1,1,10.48,9.27,121.33,121.33,0,0,0-16.1,23.27A7,7,0,0,1,516.11,786.37Zm39.4-44.46a7,7,0,0,1-4-12.75,144.86,144.86,0,0,1,27.63-14.94,7,7,0,1,1,5.31,12.95,131.67,131.67,0,0,0-25,13.49A6.91,6.91,0,0,1,555.51,741.91Zm54.88-23a7,7,0,0,1-1.46-13.85,222.49,222.49,0,0,1,30.6-4.27,7,7,0,0,1,1,14,208.66,208.66,0,0,0-28.68,4A6.75,6.75,0,0,1,610.39,719Zm82.45-3.64c-4.35,0-8.83-.15-13.32-.45-3.29-.22-6.59-.4-9.79-.51a7,7,0,0,1,.51-14c3.34.12,6.78.3,10.21.53a177.49,177.49,0,0,0,19.22.28,7,7,0,0,1,.57,14C697.81,715.26,695.33,715.31,692.84,715.31Zm36.75-4.22a7,7,0,0,1-1.67-13.8,114.72,114.72,0,0,0,26.36-9.95,7,7,0,0,1,6.56,12.37,129.07,129.07,0,0,1-29.57,11.18A7.48,7.48,0,0,1,729.59,711.09Zm52.26-28a7,7,0,0,1-4.8-12.1,111.22,111.22,0,0,0,17.81-21.78,7,7,0,1,1,11.85,7.46,125.85,125.85,0,0,1-20.06,24.51A7,7,0,0,1,781.85,683.12ZM813.8,633a6.9,6.9,0,0,1-2.36-.41,7,7,0,0,1-4.23-9,156.66,156.66,0,0,0,7.08-27.79,7,7,0,1,1,13.82,2.22,170.76,170.76,0,0,1-7.72,30.29A7,7,0,0,1,813.8,633Zm931.12-11.29a7,7,0,0,1-6-3.39c-5-8.32-10.43-16.6-16.15-24.62a7,7,0,0,1,11.4-8.13c5.93,8.32,11.56,16.91,16.75,25.53a7,7,0,0,1-6,10.61ZM771.26,575.34h-.4a202.52,202.52,0,0,1-30.79-4.05A7,7,0,0,1,743,557.6a189.73,189.73,0,0,0,28.65,3.75,7,7,0,0,1-.4,14Zm30-.08a7,7,0,0,1-.39-14c5-.29,10.17-.72,15.46-1.28A178.35,178.35,0,0,0,814,538.37a7,7,0,0,1,13.81-2.32,194.73,194.73,0,0,1,2.4,22.19,7,7,0,0,1,1.83,13.88l-4.47.62a7,7,0,0,1-4.09,1.34,7.26,7.26,0,0,1-2.65-.51c-6.58.76-13,1.32-19.22,1.67Zm908.93-2.37a7,7,0,0,1-5.39-2.53c-6.21-7.47-12.82-14.87-19.65-22a7,7,0,0,1,10.11-9.68c7.06,7.36,13.89,15,20.31,22.74a7,7,0,0,1-5.38,11.47Zm-849.57-6A7,7,0,0,1,859.15,553c9.23-1.95,18.93-4.28,28.83-6.91a7,7,0,1,1,3.6,13.52c-10.13,2.7-20.07,5.08-29.53,7.09A7.24,7.24,0,0,1,860.59,566.89ZM713,562.37a6.94,6.94,0,0,1-2.8-.59,133.79,133.79,0,0,1-22.82-12.71q-2.24-1.55-4.35-3.08a7,7,0,1,1,8.2-11.34c1.35,1,2.73,1.94,4.14,2.93A120.23,120.23,0,0,0,715.81,549,7,7,0,0,1,713,562.37Zm205.61-10.8a7,7,0,0,1-2.07-13.69c9.09-2.81,18.61-5.93,28.3-9.28a7,7,0,1,1,4.57,13.23c-9.83,3.4-19.5,6.57-28.73,9.43A7.12,7.12,0,0,1,918.61,551.57ZM975.36,532a7,7,0,0,1-2.46-13.56c8.94-3.35,18.31-7,27.85-10.79a7,7,0,0,1,5.18,13c-9.63,3.84-19.09,7.5-28.12,10.89A7.06,7.06,0,0,1,975.36,532Zm693.34-2.46a7,7,0,0,1-4.72-1.83c-7.2-6.56-14.76-13-22.47-19.18a7,7,0,0,1,8.75-10.93c7.94,6.35,15.73,13,23.16,19.77a7,7,0,0,1-4.72,12.17ZM664.09,528.16a7,7,0,0,1-4.91-2c-8.82-8.67-15.39-17.27-19.53-25.56a7,7,0,0,1,12.53-6.25c3.44,6.9,9.1,14.24,16.81,21.82a7,7,0,0,1-4.9,12Zm149.36-13a7,7,0,0,1-6.59-4.64,124.36,124.36,0,0,0-12.39-25.48,7,7,0,0,1,11.75-7.61A138.35,138.35,0,0,1,820,505.83a7,7,0,0,1-6.58,9.37Zm217.67-5.37a7,7,0,0,1-2.71-13.46c8.76-3.66,18-7.61,27.53-11.74a7,7,0,0,1,5.57,12.85c-9.56,4.15-18.88,8.12-27.69,11.81A7,7,0,0,1,1031.12,509.83Zm590.75-17.71a7,7,0,0,1-4-1.26c-8-5.62-16.32-11.08-24.71-16.23a7,7,0,0,1,7.32-11.94c8.64,5.31,17.19,10.92,25.43,16.7a7,7,0,0,1-4,12.73ZM1086.19,486a7,7,0,0,1-2.85-13.4c8.54-3.8,17.48-7.83,27.32-12.3a7,7,0,0,1,5.79,12.75c-9.87,4.48-18.84,8.52-27.41,12.34A7,7,0,0,1,1086.19,486Zm-442.7-10.38a6.84,6.84,0,0,1-2.74-.57,7,7,0,0,1-3.7-9.18c4.14-9.69,12.81-17.81,25.08-23.46A7,7,0,0,1,668,455.08c-9.07,4.18-15.31,9.79-18.06,16.24A7,7,0,0,1,643.49,475.58Zm136.88-9.48a7,7,0,0,1-4.25-1.44,55.28,55.28,0,0,0-15.35-8.4c-3-1.06-6.19-2.05-9.32-2.93a7,7,0,0,1,3.8-13.47c3.4.95,6.81,2,10.13,3.18a69.4,69.4,0,0,1,19.25,10.5,7,7,0,0,1-4.26,12.56Zm360.49-4.93a7,7,0,0,1-2.92-13.37l18.72-8.6,8.55-3.93a7,7,0,1,1,5.84,12.72l-8.55,3.93q-9.3,4.27-18.73,8.61A7,7,0,0,1,1140.86,461.17Zm429.91-.43a7,7,0,0,1-3.3-.83c-8.65-4.62-17.56-9.05-26.49-13.16a7,7,0,1,1,5.86-12.72c9.17,4.23,18.34,8.78,27.23,13.53a7,7,0,0,1-3.3,13.18ZM694,448.18a7,7,0,0,1-.78-14,153,153,0,0,1,31.4-.13A7,7,0,1,1,723.24,448a139.52,139.52,0,0,0-28.49.11A7.13,7.13,0,0,1,694,448.18Zm501.46-12.05a7,7,0,0,1-2.91-13.37l9.42-4.28c6-2.75,12.3-5.34,18.59-7.71a7,7,0,0,1,4.94,13.1c-6,2.26-12,4.74-17.75,7.36q-4.68,2.11-9.39,4.27A7,7,0,0,1,1195.42,436.13Zm320.88-.47a7.15,7.15,0,0,1-2.55-.48c-9.16-3.58-18.54-6.93-27.86-9.94a7,7,0,0,1,4.3-13.32c9.59,3.1,19.23,6.53,28.65,10.21a7,7,0,0,1-2.54,13.53Zm-57.07-18.43a7.05,7.05,0,0,1-1.75-.22c-9.56-2.46-19.27-4.63-28.84-6.46a7,7,0,1,1,2.62-13.75c9.87,1.88,19.86,4.12,29.71,6.65a7,7,0,0,1-1.74,13.78Zm-207.72-2.14a7,7,0,0,1-1.83-13.76c9.69-2.64,19.74-4.91,29.86-6.72a7,7,0,0,1,2.48,13.78c-9.72,1.74-19.36,3.91-28.66,6.45A7,7,0,0,1,1251.51,415.09ZM1400.33,406a8.46,8.46,0,0,1-.87-.05c-9.81-1.22-19.71-2.1-29.41-2.64a7,7,0,0,1,.77-14c10,.55,20.23,1.47,30.36,2.73a7,7,0,0,1-.85,13.94Zm-89.84-1.57a7,7,0,0,1-.66-14c10-1,20.24-1.53,30.49-1.71a7,7,0,0,1,.25,14c-9.89.17-19.78.72-29.41,1.64C1310.94,404.42,1310.71,404.43,1310.49,404.43Z" transform="translate(-28.41 -90.93)"/><polygon class="cls-23" points="1722.48 482.59 1699.81 519.72 1894.95 652.85 1722.48 482.59"/><polygon class="cls-23" points="1679.69 564.28 1691.51 606.85 1886.27 646.72 1679.69 564.28"/><polygon class="cls-11" points="1894.95 652.85 1565.87 540.68 1679.69 500.66 1894.95 652.85"/><polygon class="cls-11" points="1722.48 482.59 1894.95 652.85 1794.01 452.39 1722.48 482.59"/><path class="cls-11" d="M2756.21,345.58a7,7,0,0,1,0-14,112.8,112.8,0,0,0,28-3.31,7,7,0,1,1,3.49,13.56,126.77,126.77,0,0,1-31.45,3.75Zm-29.84-2.66a6.8,6.8,0,0,1-1.18-.1,264.14,264.14,0,0,1-30-7,7,7,0,1,1,3.94-13.43,251,251,0,0,0,28.4,6.65,7,7,0,0,1-1.16,13.9Zm86.82-13a7,7,0,0,1-3.94-12.79,75.74,75.74,0,0,0,17.59-16.74,7,7,0,1,1,11.12,8.5,89.53,89.53,0,0,1-20.84,19.82A6.94,6.94,0,0,1,2813.19,329.93Zm-484-1.55a7,7,0,0,1-5.69-11.06,202.88,202.88,0,0,1,20-23.75,7,7,0,1,1,10,9.77,189.37,189.37,0,0,0-18.64,22.1A7,7,0,0,1,2329.22,328.38Zm339.56-2a7.1,7.1,0,0,1-2.54-.48c-9.11-3.56-18.53-7.62-28-12.08a7,7,0,1,1,6-12.66c9.18,4.32,18.3,8.26,27.12,11.69a7,7,0,0,1-2.55,13.53Zm-54.31-25.47a7.06,7.06,0,0,1-3.34-.85c-8.75-4.76-17.6-9.87-26.29-15.2a7,7,0,1,1,7.31-11.94c8.49,5.2,17.12,10.2,25.66,14.84a7,7,0,0,1-3.34,13.15Zm-243.64-15.53a7,7,0,0,1-4.36-12.48,248.24,248.24,0,0,1,25.29-17.68,7,7,0,0,1,7.28,12,233.67,233.67,0,0,0-23.86,16.68A7,7,0,0,1,2370.83,285.36Zm192.46-15.79a7,7,0,0,1-3.95-1.22c-3.09-2.12-6.19-4.29-9.22-6.44a119.86,119.86,0,0,0-15.24-9.26,7,7,0,1,1,6.34-12.48,134.28,134.28,0,0,1,17,10.34c2.95,2.1,6,4.21,9,6.28a7,7,0,0,1-4,12.78ZM2422,254.37a7,7,0,0,1-2.77-13.43,184.93,184.93,0,0,1,29.53-9.95,7,7,0,0,1,3.3,13.61,171.25,171.25,0,0,0-27.29,9.2A6.94,6.94,0,0,1,2422,254.37Zm87.87-11a6.93,6.93,0,0,1-1.49-.16,116.82,116.82,0,0,0-28.1-2.52,7,7,0,1,1-.43-14,129.76,129.76,0,0,1,31.5,2.83,7,7,0,0,1-1.48,13.84Z" transform="translate(-28.41 -90.93)"/><polygon class="cls-23" points="2294.06 209.13 2304.16 240.97 2134.22 304.47 2294.06 209.13"/><polygon class="cls-23" points="2310.99 277.89 2294.38 307.48 2141.82 301.49 2310.99 277.89"/><polygon class="cls-11" points="2134.22 304.47 2400.2 281.17 2322.66 230.45 2134.22 304.47"/><polygon class="cls-11" points="2294.06 209.13 2134.22 304.47 2246.26 173.49 2294.06 209.13"/><path class="cls-11" d="M2137.4,690.09q12.41-9.37,29.76-9.37c25,0,38.21,13.59,38.21,32.7,0,11-5.33,22.22-16.16,33.43-13.78,14.51-23.7,21.67-29.95,21.67a10.34,10.34,0,0,1-10.47-10.46c0-5.15,4.78-10.29,13.05-17.82a7.81,7.81,0,0,1,1.46-1.29c9.37-8.63,12.31-13.41,12.31-19.29,0-7.35-5-11.39-12.12-11.39a39.37,39.37,0,0,0-11.76,2.21q-6.89,2.21-9.92,2.2a11.46,11.46,0,0,1-11-11.76C2130.79,697.07,2133,693.39,2137.4,690.09Zm25.17,122.52c-11.21,0-18.74-8.45-18.74-18.73,0-8.82,7.53-17.27,18.74-17.27,9.74,0,17.27,8.45,17.27,17.27C2179.84,804,2172.67,812.61,2162.57,812.61Z" transform="translate(-28.41 -90.93)"/><path class="cls-11" d="M1191.52,209.61q9.81-7.41,23.54-7.41c19.76,0,30.22,10.75,30.22,25.87,0,8.72-4.21,17.58-12.78,26.44-10.9,11.48-18.75,17.15-23.69,17.15a8.18,8.18,0,0,1-8.28-8.28c0-4.07,3.78-8.14,10.31-14.1a6.44,6.44,0,0,1,1.17-1c7.41-6.83,9.73-10.61,9.73-15.26,0-5.82-3.92-9-9.59-9a31.27,31.27,0,0,0-9.3,1.74,30,30,0,0,1-7.84,1.75,9.06,9.06,0,0,1-8.72-9.3C1186.29,215.13,1188,212.23,1191.52,209.61Zm19.9,96.92a14.43,14.43,0,0,1-14.82-14.82c0-7,6-13.66,14.82-13.66a13.94,13.94,0,0,1,13.67,13.66C1225.09,299.71,1219.42,306.53,1211.42,306.53Z" transform="translate(-28.41 -90.93)"/><path class="cls-24" d="M885.59,284.42,826.75,393.28a8.52,8.52,0,0,1-11.56,3.45L626,294.47a8.52,8.52,0,0,1-3.44-11.56L681.4,174.06A8.53,8.53,0,0,1,693,170.61L882.14,272.86A8.52,8.52,0,0,1,885.59,284.42Z" transform="translate(-28.41 -90.93)"/><path class="cls-11" d="M885.59,284.42l-3.26,6L762.67,305.76a27.17,27.17,0,0,1-28.44-15.06L679.55,177.5l1.85-3.44A8.54,8.54,0,0,1,693,170.61L882.14,272.86A8.54,8.54,0,0,1,885.59,284.42Z" transform="translate(-28.41 -90.93)"/><path class="cls-11" d="M2018.45,502.23a54.46,54.46,0,1,1,54.46-54.46A54.52,54.52,0,0,1,2018.45,502.23Zm0-93.92a39.46,39.46,0,1,0,39.46,39.46A39.5,39.5,0,0,0,2018.45,408.31Z" transform="translate(-28.41 -90.93)"/><path class="cls-1" d="M3018.12,873.06a54.46,54.46,0,1,1,54.46-54.46A54.52,54.52,0,0,1,3018.12,873.06Zm0-93.92a39.46,39.46,0,1,0,39.46,39.46A39.51,39.51,0,0,0,3018.12,779.14Z" transform="translate(-28.41 -90.93)"/><circle class="cls-11" cx="2081.04" cy="270.16" r="31.09"/><circle class="cls-1" cx="2992.19" cy="605.22" r="31.09"/><path class="cls-25" d="M128.61,1138.18a44.29,44.29,0,1,1-44.29-44.29A44.3,44.3,0,0,1,128.61,1138.18Z" transform="translate(-28.41 -90.93)"/><path class="cls-11" d="M80.75,1166.12h0a6.5,6.5,0,0,1-5.37-2.88l-18.22-27.15a6.5,6.5,0,0,1,10.8-7.25L80.8,1148l21.81-31.83a6.5,6.5,0,1,1,10.72,7.35l-27.22,39.73A6.5,6.5,0,0,1,80.75,1166.12Z" transform="translate(-28.41 -90.93)"/><circle class="cls-25" cx="91.5" cy="1098.17" r="12.69"/></svg>